<svg xmlns="http://www.w3.org/2000/svg" xmlns:xlink="http://www.w3.org/1999/xlink" viewBox="0 0 139.06 96.68"><defs><style>.cls-1{isolation:isolate;}.cls-2{fill:#d87777;}.cls-3{fill:url(#linear-gradient);}.cls-4{mix-blend-mode:multiply;}.cls-5{fill:url(#linear-gradient-2);}.cls-6{fill:none;}.cls-7{fill:url(#linear-gradient-3);}.cls-8{fill:url(#linear-gradient-4);}</style><linearGradient id="linear-gradient" x1="118.84" y1="76.46" x2="51.72" y2="9.33" gradientUnits="userSpaceOnUse"><stop offset="0" stop-color="#4e19f4"/><stop offset="0.45" stop-color="#a81cf2"/><stop offset="1" stop-color="#ff1556"/></linearGradient><linearGradient id="linear-gradient-2" x1="377.13" y1="114.73" x2="353.26" y2="111.29" gradientUnits="userSpaceOnUse"><stop offset="0" stop-color="#4e19bb"/><stop offset="0.02" stop-color="#531fbd"/><stop offset="0.23" stop-color="#8662d1"/><stop offset="0.42" stop-color="#b19ae1"/><stop offset="0.61" stop-color="#d3c6ee"/><stop offset="0.77" stop-color="#ebe5f7"/><stop offset="0.91" stop-color="#faf8fd"/><stop offset="1" stop-color="#fff"/></linearGradient><linearGradient id="linear-gradient-3" x1="45.74" y1="-12.86" x2="95.77" y2="37.17" xlink:href="#linear-gradient"/><linearGradient id="linear-gradient-4" x1="374.53" y1="86.23" x2="395.33" y2="65.43" xlink:href="#linear-gradient-2"/></defs><title>27</title><g class="cls-1"><g id="OBJECTS"><path class="cls-2" d="M424.54,53.89,378,100.44,354.4,76.86a32.48,32.48,0,0,0-45.94,0h0L378,146.4l69.54-69.54Z" transform="translate(-308.45 -49.72)"/><polygon class="cls-3" points="139.06 27.14 69.53 96.68 0 27.14 22.98 4.17 69.53 50.73 116.09 4.17 139.06 27.14"/><g class="cls-4"><path class="cls-5" d="M378,129.28v17.11l-43-43,23-23A69.62,69.62,0,0,1,378,129.28Z" transform="translate(-308.45 -49.72)"/></g><line class="cls-6" x1="80.04" y1="30.72" x2="57.08" y2="53.69"/><polygon class="cls-7" points="91.67 0 69.66 22.01 69.53 22.14 47.4 0 36.48 10.92 69.53 43.98 69.55 43.96 102.59 10.92 91.67 0"/><g class="cls-4"><path class="cls-8" d="M400.12,49.72,387.46,62.38a32.06,32.06,0,0,0-9.4,22.52c0,3.51,0,6.63-.05,8.78l33-33Z" transform="translate(-308.45 -49.72)"/></g></g></g></svg>