<svg width="40" height="40" viewBox="0 0 40 40" fill="none" xmlns="http://www.w3.org/2000/svg">
<g id="Frame 38">
<g id="18+">
<path d="M7 15.0013V13.2224H10.4794V25.6921H8.55568V15.0013H7Z" fill="url(#paint0_linear_22_317)"/>
<path d="M15.1566 19.175C13.9968 18.582 13.4169 17.6469 13.4169 16.3697C13.4169 15.7539 13.5675 15.1895 13.8686 14.6763C14.1697 14.1632 14.6213 13.7583 15.2235 13.4618C15.8257 13.1539 16.5617 13 17.4316 13C18.2903 13 19.0207 13.1539 19.6229 13.4618C20.2363 13.7583 20.6935 14.1632 20.9946 14.6763C21.2957 15.1895 21.4462 15.7539 21.4462 16.3697C21.4462 17.0083 21.2845 17.5728 20.9611 18.0632C20.6489 18.5421 20.2307 18.9127 19.7065 19.175C20.3422 19.4145 20.844 19.8079 21.212 20.3553C21.5801 20.8912 21.7641 21.5241 21.7641 22.2539C21.7641 22.9952 21.5801 23.6509 21.212 24.2211C20.844 24.7912 20.331 25.2303 19.6731 25.5382C19.0151 25.8461 18.268 26 17.4316 26C16.5952 26 15.848 25.8461 15.1901 25.5382C14.5433 25.2303 14.0358 24.7912 13.6678 24.2211C13.2998 23.6509 13.1158 22.9952 13.1158 22.2539C13.1158 21.5127 13.2998 20.8741 13.6678 20.3382C14.0358 19.8022 14.5321 19.4145 15.1566 19.175ZM19.6229 16.6092C19.6229 15.9706 19.4278 15.4803 19.0374 15.1382C18.6471 14.7961 18.1118 14.625 17.4316 14.625C16.7625 14.625 16.2328 14.7961 15.8424 15.1382C15.4521 15.4803 15.257 15.9763 15.257 16.6263C15.257 17.1965 15.4577 17.664 15.8592 18.0289C16.2718 18.3825 16.7959 18.5592 17.4316 18.5592C18.0672 18.5592 18.5914 18.3768 19.004 18.0118C19.4166 17.6469 19.6229 17.1794 19.6229 16.6092ZM17.4316 20.0303C16.6956 20.0303 16.0934 20.2184 15.625 20.5947C15.1678 20.9596 14.9391 21.4899 14.9391 22.1855C14.9391 22.8355 15.1622 23.3658 15.6083 23.7763C16.0543 24.1754 16.6621 24.375 17.4316 24.375C18.1899 24.375 18.7865 24.1697 19.2214 23.7592C19.6675 23.3487 19.8906 22.8241 19.8906 22.1855C19.8906 21.5013 19.6619 20.9711 19.2047 20.5947C18.7586 20.2184 18.1676 20.0303 17.4316 20.0303Z" fill="url(#paint1_linear_22_317)"/>
<path d="M33 20.3382H29.621V23.8789H27.8479V20.3382H24.4689V18.6961H27.8479V15.1553H29.621V18.6961H33V20.3382Z" fill="url(#paint2_linear_22_317)"/>
</g>
<path id="Ellipse 5" d="M38.5 20C38.5 30.2173 30.2173 38.5 20 38.5C9.78273 38.5 1.5 30.2173 1.5 20C1.5 9.78273 9.78273 1.5 20 1.5C30.2173 1.5 38.5 9.78273 38.5 20Z" stroke="url(#paint3_linear_22_317)" stroke-width="3"/>
</g>
<defs>
<linearGradient id="paint0_linear_22_317" x1="33" y1="19.5" x2="7" y2="19.5" gradientUnits="userSpaceOnUse">
<stop stop-color="#1543F5"/>
<stop offset="1" stop-color="#0AD1F0"/>
</linearGradient>
<linearGradient id="paint1_linear_22_317" x1="33" y1="19.5" x2="7" y2="19.5" gradientUnits="userSpaceOnUse">
<stop stop-color="#1543F5"/>
<stop offset="1" stop-color="#0AD1F0"/>
</linearGradient>
<linearGradient id="paint2_linear_22_317" x1="33" y1="19.5" x2="7" y2="19.5" gradientUnits="userSpaceOnUse">
<stop stop-color="#1543F5"/>
<stop offset="1" stop-color="#0AD1F0"/>
</linearGradient>
<linearGradient id="paint3_linear_22_317" x1="40" y1="20" x2="-5.39017e-07" y2="20" gradientUnits="userSpaceOnUse">
<stop stop-color="#1543F5"/>
<stop offset="1" stop-color="#0AD1F0"/>
</linearGradient>
</defs>
</svg>
