<svg width="106" height="30" viewBox="0 0 106 30" fill="none" xmlns="http://www.w3.org/2000/svg">
<g id="gamcare3 1" opacity="0.6" clip-path="url(#clip0_11_136)">
<g id="Clip path group">
<mask id="mask0_11_136" style="mask-type:luminance" maskUnits="userSpaceOnUse" x="0" y="0" width="106" height="30">
<g id="clip-path">
<path id="Path 990" d="M0.685303 0H105.683V30H0.685303V0Z" fill="white"/>
</g>
</mask>
<g mask="url(#mask0_11_136)">
<g id="logo-gamcare-desktop_29390597">
<path id="Path 987" d="M40.9153 7.67346C40.8941 7.71768 40.8638 7.75689 40.8263 7.78849C40.7888 7.82009 40.745 7.84335 40.6978 7.85674L38.7103 8.44596C38.467 8.51627 38.3409 8.44596 38.2416 8.20268C38.1273 7.72042 37.8421 7.29592 37.4389 7.00786C37.0356 6.71981 36.5415 6.58773 36.0483 6.63612C34.1775 6.63612 33.5372 7.74424 33.5372 9.23627V12.6689C33.5372 14.161 34.1686 15.2691 36.0483 15.2691C37.5951 15.2691 38.3864 14.5491 38.3864 12.9821V12.5133H36.3661C36.3274 12.5166 36.2884 12.511 36.2521 12.4971C36.2158 12.4831 36.1832 12.4611 36.1566 12.4328C36.13 12.4044 36.1102 12.3704 36.0987 12.3333C36.0872 12.2961 36.0842 12.2569 36.09 12.2185V10.3585C36.0851 10.3202 36.0887 10.2813 36.1006 10.2446C36.1124 10.2079 36.1323 10.1742 36.1586 10.146C36.185 10.1179 36.2173 10.0959 36.2531 10.0816C36.289 10.0674 36.3276 10.0612 36.3661 10.0636H40.8661C40.9045 10.0578 40.9438 10.0608 40.9809 10.0723C41.018 10.0839 41.052 10.1037 41.0804 10.1302C41.1088 10.1568 41.1308 10.1895 41.1447 10.2257C41.1586 10.262 41.1642 10.301 41.1609 10.3397V13.1766C41.1609 15.8888 39.1687 17.9325 36.0726 17.9325C32.4014 17.9325 30.6853 15.758 30.6853 12.7885V9.16127C30.6853 6.17299 32.4014 4.01721 36.0726 4.01721C39.0422 4.01721 40.3851 5.71034 40.9223 7.40768M51.0239 10.7827V17.4389C51.0259 17.4757 51.0202 17.5125 51.007 17.5469C50.9939 17.5814 50.9736 17.6126 50.9475 17.6387C50.9215 17.6647 50.8902 17.685 50.8558 17.6982C50.8214 17.7113 50.7846 17.7171 50.7478 17.715H48.7181C48.68 17.7191 48.6415 17.7149 48.6051 17.7027C48.5687 17.6906 48.5354 17.6707 48.5075 17.6445C48.4795 17.6183 48.4575 17.5864 48.4429 17.5509C48.4284 17.5154 48.4217 17.4772 48.4233 17.4389V16.3491C48.135 16.8342 47.7237 17.2346 47.231 17.5097C46.7382 17.7848 46.1816 17.9248 45.6173 17.9156C43.7001 17.9156 42.4608 16.681 42.4608 14.7825C42.4608 12.8841 43.6251 11.8294 46.4639 11.6307C47.0772 11.5839 47.6932 11.5839 48.3066 11.6307V10.8731C48.3066 9.87706 47.7909 9.47018 46.9036 9.47018C46.5954 9.42656 46.2819 9.49806 46.0231 9.67101C45.7643 9.84396 45.5782 10.1062 45.5006 10.4077C45.4069 10.6275 45.337 10.665 45.1312 10.6088L43.1016 10.0931C42.9005 10.0369 42.8817 9.92487 42.9192 9.78002C43.1953 8.32081 44.5795 7.24877 47.0114 7.24877C49.5741 7.24877 51.0145 8.46752 51.0145 10.756M48.3023 14.2402V13.3097C47.7607 13.2901 47.2185 13.3089 46.6795 13.366C45.6506 13.4921 45.0942 13.8056 45.0942 14.6006C45.0942 15.316 45.563 15.7041 46.3664 15.7041C46.8026 15.7131 47.2294 15.5769 47.5798 15.3171C47.9302 15.0572 48.1843 14.6883 48.3023 14.2683M58.3476 7.2769C58.9156 7.26665 59.471 7.44426 59.9276 7.78213C60.3843 8.12 60.7165 8.59922 60.8728 9.14534C61.6303 8.03721 62.5519 7.27456 63.8423 7.27456C65.6287 7.27456 66.6483 8.67752 66.6483 10.8146V17.4389C66.6454 17.4791 66.6344 17.5183 66.616 17.5542C66.5975 17.59 66.5721 17.6218 66.5411 17.6476C66.5101 17.6734 66.4742 17.6926 66.4356 17.7042C66.397 17.7158 66.3565 17.7195 66.3164 17.715H64.1981C64.158 17.7196 64.1175 17.7159 64.0788 17.7044C64.0402 17.6928 64.0043 17.6735 63.9733 17.6478C63.9423 17.622 63.9168 17.5902 63.8984 17.5543C63.88 17.5184 63.8691 17.4792 63.8662 17.4389V11.2983C63.8662 10.3608 63.4594 9.82034 62.7412 9.82034C62.0231 9.82034 61.432 10.4517 61.1559 11.4103V17.4385C61.1585 17.4738 61.1538 17.5093 61.142 17.5427C61.1302 17.5761 61.1117 17.6068 61.0875 17.6327C61.0634 17.6586 61.0341 17.6792 61.0016 17.6933C60.9691 17.7074 60.934 17.7147 60.8986 17.7146H58.6041C58.4405 17.7146 58.3655 17.6025 58.3655 17.4385V11.2978C58.3655 10.3603 57.9586 9.81987 57.2405 9.81987C56.5223 9.81987 55.9125 10.4841 55.6551 11.4286V17.438C55.6588 17.4752 55.6542 17.5127 55.6416 17.5478C55.629 17.583 55.6088 17.6149 55.5823 17.6413C55.5559 17.6677 55.524 17.6879 55.4889 17.7005C55.4537 17.7131 55.4162 17.7177 55.3791 17.7141H53.1291C53.0919 17.7177 53.0544 17.7131 53.0192 17.7005C52.9841 17.6879 52.9522 17.6677 52.9258 17.6413C52.8994 17.6149 52.8791 17.583 52.8665 17.5478C52.854 17.5127 52.8493 17.4752 52.853 17.438V7.75831C52.8529 7.72287 52.8601 7.6878 52.8742 7.65529C52.8883 7.62278 52.9089 7.59353 52.9348 7.56937C52.9608 7.54521 52.9914 7.52667 53.0248 7.5149C53.0582 7.50312 53.0937 7.49838 53.1291 7.50096H55.2853C55.3208 7.49765 55.3566 7.50188 55.3903 7.51338C55.4241 7.52488 55.455 7.5434 55.4811 7.5677C55.5072 7.59201 55.5278 7.62156 55.5416 7.65441C55.5555 7.68726 55.5622 7.72267 55.5614 7.75831V8.91799C55.8585 8.43518 56.2698 8.03294 56.7592 7.7468C57.2486 7.46067 57.8009 7.29944 58.3673 7.27737M78.2475 7.5019C78.3037 7.74049 78.2475 7.92377 78.0089 7.97065L76.0542 8.54112C76.0102 8.5623 75.9618 8.57273 75.913 8.57154C75.8641 8.57036 75.8163 8.55759 75.7733 8.53429C75.7304 8.511 75.6936 8.47784 75.666 8.43754C75.6384 8.39725 75.6208 8.35097 75.6145 8.30252C75.3333 7.36502 74.857 6.64221 73.4916 6.64221C71.8125 6.64221 71.2795 7.75034 71.2795 9.24237V12.675C71.2795 14.1671 71.8889 15.2752 73.4916 15.2752C74.932 15.2752 75.4837 14.4614 75.7036 13.4471C75.7085 13.3975 75.7255 13.3498 75.7532 13.3084C75.7808 13.2669 75.8183 13.2329 75.8622 13.2093C75.9061 13.1857 75.9551 13.1733 76.005 13.1732C76.0548 13.173 76.1039 13.1851 76.148 13.2085L78.1073 13.8446C78.1547 13.8582 78.1988 13.8815 78.2368 13.9129C78.2748 13.9443 78.306 13.9832 78.3284 14.0271C78.3507 14.0711 78.3638 14.1192 78.3669 14.1684C78.3699 14.2176 78.3628 14.2669 78.3459 14.3133C77.8772 16.3055 76.447 17.9227 73.4587 17.9227C70.1058 17.9227 68.408 15.7481 68.408 12.7786V9.16127C68.408 6.17299 70.1381 4.01721 73.4587 4.01721C76.372 4.01721 77.738 5.56409 78.2522 7.51971M88.0603 10.786V17.4422C88.0623 17.479 88.0566 17.5158 88.0434 17.5502C88.0303 17.5846 88.01 17.6159 87.984 17.642C87.9579 17.668 87.9266 17.6883 87.8922 17.7014C87.8578 17.7146 87.821 17.7203 87.7842 17.7183H85.7545C85.7164 17.7224 85.6779 17.7182 85.6415 17.706C85.6051 17.6939 85.5718 17.674 85.5439 17.6478C85.5159 17.6216 85.4939 17.5897 85.4794 17.5542C85.4648 17.5187 85.4581 17.4805 85.4597 17.4422V16.3491C85.1714 16.8342 84.7601 17.2346 84.2674 17.5097C83.7746 17.7848 83.218 17.9248 82.6537 17.9156C80.7366 17.9156 79.5019 16.681 79.5019 14.7825C79.5019 12.8841 80.6616 11.8294 83.5003 11.6307C84.1152 11.5838 84.7328 11.5838 85.3476 11.6307V10.8731C85.3476 9.87706 84.8287 9.47018 83.9447 9.47018C83.6368 9.42908 83.3245 9.5016 83.0663 9.67417C82.808 9.84673 82.6215 10.1075 82.5417 10.4077C82.4526 10.6275 82.3781 10.665 82.1723 10.6088L80.1473 10.0931C79.9416 10.0369 79.9228 9.92487 79.9598 9.78002C80.2359 8.32081 81.6201 7.24877 84.0562 7.24877C86.6189 7.24877 88.0547 8.46752 88.0547 10.756M85.3472 14.2402V13.3097C84.8056 13.29 84.2633 13.3088 83.7244 13.366C82.6931 13.4921 82.1391 13.8056 82.1391 14.6006C82.1391 15.316 82.6078 15.7041 83.4112 15.7041C83.8472 15.7123 84.2736 15.5758 84.6239 15.3161C84.9741 15.0563 85.2285 14.6879 85.3472 14.2683M95.9583 7.68377V9.65721C95.9583 9.89581 95.8645 9.98909 95.6264 9.98909H95.3273C93.8541 9.98909 92.9892 10.6533 92.6944 11.7614V17.4389C92.6969 17.4731 92.6926 17.5075 92.6817 17.54C92.6708 17.5725 92.6535 17.6024 92.6308 17.6282C92.6082 17.6539 92.5806 17.6748 92.5497 17.6897C92.5189 17.7046 92.4853 17.7132 92.4511 17.715H90.113C90.0787 17.7132 90.0452 17.7046 90.0143 17.6897C89.9835 17.6748 89.9559 17.6539 89.9332 17.6282C89.9106 17.6024 89.8933 17.5725 89.8824 17.54C89.8714 17.5075 89.8671 17.4731 89.8697 17.4389V7.75831C89.8681 7.72246 89.8743 7.68669 89.8879 7.65347C89.9015 7.62025 89.9221 7.59038 89.9483 7.56591C89.9746 7.54144 90.0058 7.52296 90.0399 7.51175C90.074 7.50054 90.1101 7.49686 90.1458 7.50096H92.25C92.4698 7.50096 92.5261 7.64581 92.5261 7.79581V9.16127C92.7962 8.6036 93.2223 8.13625 93.7527 7.81585C94.2831 7.49545 94.895 7.33575 95.5144 7.35612C95.8837 7.35612 95.9831 7.41237 95.9831 7.66924M99.5794 13.4349V13.823C99.5794 14.8941 100.136 15.6469 101.45 15.6469C102.765 15.6469 103.073 15.1781 103.405 14.5617C103.568 14.2856 103.643 14.2486 103.938 14.3742L105.391 15.113C105.69 15.2625 105.709 15.4078 105.578 15.6835C104.952 17.0864 103.385 17.9142 101.43 17.9142C98.4773 17.9142 96.9305 16.1653 96.9305 13.7663V11.4296C96.9305 9.09143 98.3836 7.2769 101.411 7.2769C104.287 7.2769 105.69 9.10502 105.69 11.3738V12.9966C105.69 13.2727 105.596 13.4653 105.221 13.4653L99.5794 13.4349ZM99.5794 11.2786V11.6297H103.138V11.2791C103.16 11.0412 103.13 10.8013 103.049 10.5765C102.968 10.3517 102.839 10.1474 102.67 9.97828C102.501 9.80911 102.297 9.67916 102.073 9.59767C101.848 9.51617 101.608 9.48513 101.37 9.50674C101.131 9.48484 100.89 9.51548 100.664 9.59653C100.438 9.67759 100.233 9.80708 100.062 9.97594C99.8917 10.1448 99.76 10.3489 99.6766 10.5741C99.5932 10.7992 99.56 11.0393 99.5794 11.2786Z" fill="#7989AD"/>
<path id="Path 988" d="M13.4381 1.8752e-05H1.06405C1.01449 -0.000476876 0.965325 0.00885689 0.919395 0.0274804C0.873464 0.0461039 0.83168 0.0736476 0.79646 0.108519C0.76124 0.14339 0.733282 0.184898 0.714202 0.230641C0.695123 0.276384 0.6853 0.325456 0.685303 0.375019V18.3703C0.686794 21.454 1.91282 24.4108 4.09382 26.5908C6.27483 28.7707 9.23227 29.9953 12.3159 29.9953H13.4381C16.5213 29.9953 19.4781 28.7706 21.6582 26.5904C23.8383 24.4103 25.0631 21.4535 25.0631 18.3703V11.626C25.0631 10.0993 24.7624 8.58767 24.1782 7.17726C23.594 5.76685 22.7377 4.48532 21.6582 3.40584C20.5787 2.32636 19.2972 1.47007 17.8868 0.885857C16.4764 0.301646 14.9647 0.00095624 13.4381 0.00095624M21.3276 18.5658C21.3276 22.943 18.1148 26.2495 13.1109 26.2495C7.18593 26.2495 4.41702 22.7339 4.41702 17.9349V12.075C4.41702 7.24689 7.18546 3.73689 13.1016 3.73689C17.895 3.73689 20.0695 6.47721 20.9348 9.21799C20.9682 9.29072 20.9855 9.36979 20.9855 9.44981C20.9855 9.52983 20.9682 9.6089 20.9349 9.68165C20.9016 9.7544 20.853 9.8191 20.7924 9.87135C20.7318 9.92359 20.6606 9.96215 20.5837 9.98439L17.3662 10.9219C16.9828 11.0386 16.7723 10.9219 16.6556 10.5338C16.1461 8.89689 15.075 8.00252 13.1109 8.00252C10.0711 8.00252 9.06093 9.78893 9.06093 12.2114V17.7614C9.06093 20.1746 10.0711 21.9703 13.1109 21.9703C15.6126 21.9703 16.9223 20.806 16.9223 18.2756V17.551H13.5694C13.5058 17.5596 13.441 17.5535 13.3802 17.533C13.3194 17.5125 13.2641 17.4783 13.2187 17.4329C13.1733 17.3875 13.139 17.3322 13.1186 17.2714C13.0981 17.2105 13.0919 17.1458 13.1006 17.0822V14.011C13.0955 13.9481 13.1041 13.8849 13.1259 13.8257C13.1476 13.7665 13.182 13.7128 13.2266 13.6682C13.2712 13.6236 13.3249 13.5892 13.3841 13.5675C13.4433 13.5457 13.5065 13.5371 13.5694 13.5422H20.8505C20.9118 13.5342 20.9742 13.54 21.033 13.5592C21.0918 13.5783 21.1456 13.6103 21.1905 13.6529C21.2354 13.6955 21.2703 13.7475 21.2925 13.8052C21.3148 13.8629 21.3239 13.9249 21.3192 13.9866L21.3276 18.5658Z" fill="#7989AD"/>
<path id="Path 989" d="M33.4303 21.6942C33.4356 21.7035 33.4387 21.7139 33.4394 21.7246C33.4401 21.7353 33.4383 21.746 33.4343 21.7559C33.4302 21.7658 33.4239 21.7746 33.4159 21.7817C33.4079 21.7888 33.3984 21.794 33.3881 21.7969L33.06 21.8996C33.0084 21.8996 32.9803 21.8996 32.9573 21.8574C32.9101 21.6756 32.8002 21.5163 32.6471 21.4077C32.4939 21.299 32.3073 21.2479 32.1201 21.2635C31.9929 21.2461 31.8634 21.2584 31.7418 21.2993C31.6201 21.3403 31.5096 21.4089 31.4188 21.4996C31.328 21.5904 31.2595 21.701 31.2185 21.8226C31.1775 21.9443 31.1653 22.0738 31.1826 22.201V23.4403C31.1653 23.5675 31.1775 23.697 31.2185 23.8187C31.2595 23.9403 31.328 24.0509 31.4188 24.1417C31.5096 24.2324 31.6201 24.301 31.7418 24.342C31.8634 24.3829 31.9929 24.3952 32.1201 24.3778C32.6484 24.3778 32.9948 24.1346 32.9948 23.5875V23.1188H32.2284C32.1862 23.1188 32.1628 23.1188 32.1628 23.0485V22.7888C32.1628 22.7419 32.1628 22.7185 32.2284 22.7185H33.4162C33.426 22.717 33.436 22.7178 33.4454 22.7207C33.4548 22.7237 33.4635 22.7287 33.4707 22.7355C33.4779 22.7423 33.4835 22.7506 33.4871 22.7598C33.4906 22.769 33.492 22.7789 33.4912 22.7888V23.6494C33.4929 23.8242 33.4575 23.9973 33.3875 24.1574C33.3175 24.3176 33.2144 24.4611 33.085 24.5786C32.9556 24.6961 32.8029 24.7849 32.6367 24.8391C32.4706 24.8934 32.2949 24.9119 32.1211 24.8935C31.9299 24.9159 31.7361 24.8953 31.5539 24.8332C31.3718 24.7711 31.2058 24.669 31.0681 24.5345C30.9305 24.4 30.8247 24.2363 30.7584 24.0556C30.6922 23.8749 30.6672 23.6817 30.6853 23.49V22.1775C30.6673 21.9859 30.6923 21.7927 30.7586 21.6121C30.8249 21.4314 30.9307 21.2679 31.0683 21.1334C31.206 20.9989 31.3719 20.8969 31.5541 20.8348C31.7362 20.7727 31.9299 20.7521 32.1211 20.7746C32.4104 20.7515 32.6989 20.8292 32.9375 20.9945C33.1761 21.1598 33.3502 21.4026 33.4303 21.6816M35.9554 23.9171V23.4483C35.7342 23.4343 35.5124 23.4343 35.2912 23.4483C34.8797 23.4952 34.6317 23.64 34.6317 23.9813C34.6264 24.0529 34.6376 24.1247 34.6644 24.1913C34.6913 24.2579 34.733 24.3174 34.7865 24.3653C34.84 24.4131 34.9038 24.4481 34.9729 24.4674C35.0421 24.4867 35.1147 24.4899 35.1853 24.4767C35.3557 24.4749 35.5214 24.4203 35.6594 24.3202C35.7975 24.2202 35.9011 24.0799 35.9559 23.9185M36.4247 22.7213V24.765C36.4247 24.8072 36.4247 24.826 36.3543 24.826H36.0262C35.9793 24.826 35.9559 24.826 35.9559 24.765V24.3769C35.866 24.529 35.7381 24.6551 35.5847 24.7428C35.4314 24.8306 35.2579 24.877 35.0812 24.8775C34.9604 24.8899 34.8383 24.8763 34.7232 24.8376C34.6081 24.7989 34.5026 24.736 34.4138 24.6531C34.325 24.5703 34.255 24.4694 34.2084 24.3572C34.1618 24.2451 34.1397 24.1242 34.1437 24.0028C34.1437 23.4558 34.5131 23.1563 35.2336 23.1005C35.4686 23.0842 35.7045 23.0842 35.9395 23.1005V22.756C35.9395 22.3631 35.7103 22.1996 35.3409 22.1996C35.2094 22.1778 35.0746 22.206 34.9629 22.2787C34.8512 22.3514 34.7709 22.4633 34.7376 22.5924C34.7376 22.6439 34.7001 22.6486 34.6439 22.6392L34.3261 22.5502C34.2745 22.5502 34.2604 22.5127 34.2745 22.4705C34.3725 22.0589 34.7432 21.7922 35.3526 21.7922C35.962 21.7922 36.419 22.0917 36.419 22.7297M38.5701 21.7852C38.7323 21.7818 38.891 21.8329 39.0207 21.9304C39.1504 22.0279 39.2436 22.1661 39.2854 22.3228C39.3721 22.166 39.4976 22.0342 39.65 21.9401C39.8024 21.8459 39.9765 21.7925 40.1554 21.7852C40.2696 21.7861 40.3823 21.8113 40.486 21.8589C40.5898 21.9065 40.6823 21.9756 40.7574 22.0615C40.8326 22.1475 40.8887 22.2484 40.922 22.3576C40.9554 22.4667 40.9652 22.5818 40.9509 22.695V24.7575C40.9509 24.8044 40.9228 24.8232 40.8759 24.8232H40.5534C40.5018 24.8232 40.4784 24.8231 40.4784 24.7575V22.7888C40.4784 22.4241 40.3148 22.2263 40.0097 22.2263C39.8573 22.2437 39.7137 22.3068 39.5977 22.4071C39.4817 22.5075 39.3987 22.6405 39.3595 22.7888V24.7669C39.3595 24.8138 39.3595 24.8325 39.2939 24.8325H38.9353C38.8837 24.8325 38.8697 24.8325 38.8697 24.7669V22.7888C38.8697 22.4241 38.7107 22.2263 38.4009 22.2263C38.2501 22.2481 38.1087 22.3126 37.9935 22.4123C37.8782 22.512 37.794 22.6427 37.7507 22.7888V24.7435C37.7507 24.7903 37.7507 24.8091 37.6851 24.8091H37.3298C37.2782 24.8091 37.2642 24.8091 37.2642 24.7435V21.9C37.2642 21.8625 37.2642 21.8391 37.3298 21.8391H37.6757C37.7273 21.8391 37.7414 21.8625 37.7414 21.9V22.2928C37.8258 22.1445 37.9464 22.02 38.092 21.9309C38.2376 21.8417 38.4034 21.791 38.5739 21.7833M42.2868 22.9946V23.6869C42.28 23.7867 42.2945 23.8868 42.3294 23.9806C42.3642 24.0744 42.4186 24.1597 42.4889 24.2309C42.5592 24.3021 42.6438 24.3575 42.7371 24.3935C42.8305 24.4295 42.9304 24.4453 43.0303 24.4397C43.4606 24.4397 43.7179 24.1871 43.7179 23.6869V22.9899C43.7179 22.4939 43.4606 22.2277 43.0303 22.2277C42.9307 22.2255 42.8317 22.2441 42.7397 22.2823C42.6477 22.3206 42.5647 22.3776 42.496 22.4498C42.4274 22.522 42.3745 22.6078 42.3409 22.7016C42.3073 22.7954 42.2937 22.8952 42.3009 22.9946M42.3009 20.7591V22.2511C42.3925 22.1018 42.5223 21.9796 42.6769 21.8972C42.8315 21.8148 43.0052 21.7752 43.1803 21.7824C43.3254 21.7801 43.4693 21.8088 43.6024 21.8666C43.7355 21.9244 43.8547 22.0099 43.9521 22.1174C44.0495 22.225 44.1228 22.3521 44.1672 22.4903C44.2115 22.6284 44.2258 22.7745 44.2092 22.9186V23.7464C44.2253 23.8918 44.21 24.039 44.1643 24.1779C44.1185 24.3169 44.0434 24.4443 43.944 24.5517C43.8446 24.659 43.7233 24.7437 43.5883 24.8C43.4533 24.8563 43.3077 24.8829 43.1615 24.878C42.9881 24.8835 42.8162 24.843 42.6634 24.7607C42.5107 24.6784 42.3823 24.5571 42.2915 24.4092V24.7552C42.2915 24.7974 42.2587 24.8114 42.2259 24.8114H41.88C41.8378 24.8114 41.8143 24.8114 41.8143 24.7552V20.7591C41.8136 20.7509 41.8147 20.7427 41.8175 20.7349C41.8203 20.7272 41.8248 20.7202 41.8306 20.7144C41.8364 20.7086 41.8434 20.7041 41.8511 20.7013C41.8589 20.6985 41.8671 20.6974 41.8753 20.6981H42.2447C42.2868 20.6981 42.3009 20.6981 42.3009 20.7591ZM45.4622 20.7591V24.7575C45.4622 24.8044 45.4622 24.8232 45.3965 24.8232H45.0412C44.985 24.8232 44.9709 24.8231 44.9709 24.7575V20.7591C44.9709 20.7169 44.9709 20.6935 45.0412 20.6935H45.3965C45.4055 20.6918 45.4148 20.6923 45.4235 20.695C45.4322 20.6977 45.4402 20.7025 45.4466 20.709C45.4531 20.7154 45.4579 20.7234 45.4606 20.7321C45.4633 20.7408 45.4638 20.7501 45.4622 20.7591ZM46.7728 21.9028V24.7622C46.7728 24.8044 46.7728 24.8232 46.7118 24.8232H46.3565C46.3003 24.8232 46.2862 24.8231 46.2862 24.7622V21.9028C46.2862 21.8606 46.2862 21.8419 46.3565 21.8419H46.7118C46.7587 21.8419 46.7728 21.8419 46.7728 21.9028ZM46.7728 20.7778V21.3014C46.7728 21.353 46.7728 21.3811 46.6931 21.3811H46.365C46.3541 21.3827 46.3431 21.3817 46.3327 21.3783C46.3223 21.3748 46.3129 21.369 46.3051 21.3613C46.2974 21.3535 46.2916 21.3441 46.2881 21.3337C46.2847 21.3233 46.2837 21.3123 46.2853 21.3014V20.7778C46.2837 20.767 46.2847 20.756 46.2881 20.7456C46.2916 20.7352 46.2974 20.7258 46.3051 20.718C46.3129 20.7103 46.3223 20.7045 46.3327 20.701C46.3431 20.6976 46.3541 20.6966 46.365 20.6981H46.6931C46.754 20.6981 46.7728 20.7263 46.7728 20.7778ZM48.1054 22.8122V24.7622C48.1054 24.8044 48.1054 24.8232 48.0445 24.8232H47.7079C47.6517 24.8232 47.6376 24.8231 47.6376 24.7622V21.9C47.6376 21.8625 47.6376 21.8391 47.7032 21.8391H48.0492C48.1007 21.8391 48.1148 21.8625 48.1148 21.9V22.2928C48.2174 22.1376 48.3566 22.01 48.52 21.9212C48.6835 21.8323 48.8663 21.785 49.0523 21.7833C49.1777 21.7799 49.3023 21.804 49.4174 21.8539C49.5326 21.9038 49.6354 21.9782 49.7187 22.072C49.802 22.1657 49.8638 22.2766 49.8998 22.3968C49.9358 22.517 49.9451 22.6435 49.927 22.7677V24.7622C49.927 24.8044 49.927 24.8232 49.8567 24.8232H49.5014C49.4545 24.8232 49.4311 24.8231 49.4311 24.7622V22.845C49.4311 22.4616 49.2581 22.2356 48.884 22.2356C48.7157 22.2461 48.5543 22.3064 48.4202 22.4088C48.2862 22.5112 48.1856 22.6511 48.1312 22.8108M51.0773 22.8577C51.0697 22.9464 51.0819 23.0357 51.1132 23.1191C51.1445 23.2025 51.194 23.2779 51.258 23.3397C51.3221 23.4016 51.3992 23.4483 51.4837 23.4766C51.5681 23.5049 51.6578 23.5139 51.7462 23.5031C51.8322 23.5144 51.9197 23.5059 52.0019 23.4783C52.0841 23.4507 52.1589 23.4047 52.2207 23.3439C52.2825 23.283 52.3296 23.2088 52.3584 23.127C52.3872 23.0452 52.397 22.9579 52.387 22.8717C52.3934 22.7819 52.3812 22.6917 52.3511 22.6067C52.3211 22.5218 52.274 22.4439 52.2125 22.378C52.1511 22.3121 52.0768 22.2595 51.9942 22.2236C51.9116 22.1877 51.8225 22.1691 51.7324 22.1691C51.6423 22.1691 51.5532 22.1877 51.4706 22.2236C51.388 22.2595 51.3136 22.3121 51.2522 22.378C51.1908 22.4439 51.1436 22.5218 51.1136 22.6067C51.0836 22.6917 51.0714 22.7819 51.0778 22.8717M52.6443 25.1166C52.6443 24.9014 52.5229 24.7003 52.0818 24.7003H51.5348C51.1232 24.7003 50.9972 24.9108 50.9972 25.126C50.9972 25.425 51.2315 25.6219 51.8062 25.6219C52.3809 25.6219 52.6434 25.4161 52.6434 25.1171M53.1122 25.0842C53.1122 25.553 52.7475 25.9777 51.7795 25.9777C50.8861 25.9777 50.5354 25.6411 50.5354 25.1733C50.5375 25.0305 50.5836 24.8918 50.6675 24.7763C50.7514 24.6607 50.869 24.5739 51.0042 24.5278C50.9427 24.4848 50.8918 24.4283 50.8554 24.3627C50.8189 24.2971 50.7978 24.224 50.7937 24.1491C50.7971 24.0566 50.8277 23.9673 50.8818 23.8922C50.9358 23.8171 51.0109 23.7597 51.0975 23.7272C50.949 23.6417 50.8268 23.5171 50.7442 23.3671C50.6615 23.217 50.6216 23.0471 50.6287 22.876C50.6216 22.7318 50.6463 22.5879 50.701 22.4544C50.7557 22.3208 50.8391 22.201 50.9453 22.1033C51.0514 22.0055 51.1778 21.9323 51.3154 21.8889C51.453 21.8454 51.5985 21.8327 51.7415 21.8517H53.0447C53.0822 21.8517 53.1009 21.8752 53.1009 21.9174V22.1841C53.1009 22.2356 53.0728 22.2544 53.0353 22.2544H52.5164C52.6171 22.3374 52.697 22.4428 52.7498 22.5622C52.8025 22.6816 52.8266 22.8117 52.8201 22.9421C52.8201 23.4938 52.4507 23.8796 51.742 23.8796H51.4978C51.292 23.8796 51.2029 23.9733 51.2029 24.0853C51.2029 24.1974 51.2967 24.2911 51.4978 24.2911H52.1386C52.8417 24.2911 53.1159 24.6417 53.1159 25.0767M57.5775 21.616C57.5822 21.6251 57.5846 21.6352 57.5844 21.6455C57.5841 21.6557 57.5813 21.6658 57.5762 21.6747C57.571 21.6836 57.5637 21.691 57.5549 21.6963C57.5461 21.7016 57.5362 21.7046 57.5259 21.705L57.2222 21.8217C57.2126 21.8254 57.2025 21.8271 57.1923 21.8267C57.1821 21.8264 57.1721 21.8239 57.1628 21.8195C57.1536 21.8151 57.1454 21.8089 57.1387 21.8012C57.1319 21.7935 57.1269 21.7846 57.1237 21.7749C57.0719 21.614 56.9678 21.4752 56.828 21.3803C56.6882 21.2854 56.5207 21.24 56.3522 21.2513C55.8834 21.2513 55.6181 21.4711 55.6181 21.8311C55.6181 22.1911 55.8145 22.2999 56.5556 22.598C57.2967 22.8961 57.6126 23.2153 57.6126 23.7699C57.6085 23.9299 57.5711 24.0873 57.5027 24.2321C57.4342 24.3768 57.3364 24.5057 57.2153 24.6104C57.0942 24.7151 56.9526 24.7935 56.7996 24.8403C56.6465 24.8872 56.4853 24.9017 56.3264 24.8827C56.0359 24.9123 55.7443 24.8372 55.5043 24.6709C55.2643 24.5046 55.0915 24.258 55.0172 23.9756C55.0172 23.9194 55.0172 23.896 55.064 23.8777L55.3818 23.775C55.4428 23.775 55.4662 23.775 55.4803 23.8313C55.5257 24.0156 55.6366 24.1771 55.7924 24.2855C55.9483 24.394 56.1382 24.442 56.3268 24.4205C56.7956 24.4205 57.0984 24.1861 57.0984 23.8078C57.0984 23.4296 56.9207 23.2922 56.2425 23.0316C55.4287 22.7091 55.1203 22.3908 55.1203 21.8391C55.1262 21.6863 55.1638 21.5365 55.2306 21.399C55.2975 21.2616 55.3922 21.1395 55.5087 21.0405C55.6252 20.9416 55.761 20.868 55.9075 20.8243C56.054 20.7806 56.208 20.7678 56.3597 20.7867C56.6276 20.7682 56.894 20.8395 57.1168 20.9894C57.3396 21.1394 57.506 21.3594 57.5897 21.6146M58.3331 23.9016V21.9028C58.3331 21.8606 58.3565 21.8372 58.4034 21.8372H58.7587C58.8056 21.8372 58.829 21.8606 58.829 21.9028V23.8153C58.829 24.2035 59.002 24.428 59.3714 24.428C59.5406 24.4181 59.7029 24.3575 59.8372 24.2541C59.9714 24.1507 60.0715 24.0092 60.1242 23.8481V21.9028C60.1242 21.8606 60.1242 21.8372 60.1945 21.8372H60.5451C60.6014 21.8372 60.6154 21.8606 60.6154 21.9028V24.7575C60.6154 24.7997 60.6154 24.8232 60.5498 24.8232H60.2039C60.1949 24.8248 60.1856 24.8243 60.1769 24.8216C60.1682 24.8189 60.1602 24.8141 60.1538 24.8076C60.1473 24.8012 60.1425 24.7932 60.1398 24.7845C60.1371 24.7758 60.1366 24.7665 60.1382 24.7575V24.3694C60.0371 24.5264 59.8984 24.6558 59.7347 24.7458C59.571 24.8358 59.3875 24.8837 59.2007 24.885C59.0756 24.8876 58.9513 24.8629 58.8366 24.8128C58.7219 24.7627 58.6194 24.6882 58.5363 24.5947C58.4531 24.5011 58.3913 24.3906 58.355 24.2707C58.3187 24.1509 58.3088 24.0246 58.3261 23.9006M63.3572 23.6841V22.9711C63.3724 22.8745 63.3657 22.7757 63.3375 22.6821C63.3092 22.5884 63.2603 22.5024 63.1942 22.4303C63.1281 22.3582 63.0466 22.302 62.9557 22.2658C62.8649 22.2295 62.767 22.2143 62.6695 22.2211C62.5711 22.2183 62.4733 22.236 62.3822 22.2733C62.2911 22.3105 62.2088 22.3663 62.1406 22.4372C62.0723 22.5081 62.0197 22.5924 61.986 22.6849C61.9523 22.7773 61.9382 22.8758 61.9448 22.9739V23.6771C61.9376 23.7762 61.9512 23.8758 61.9848 23.9694C62.0185 24.0629 62.0714 24.1484 62.1401 24.2202C62.2089 24.2921 62.2919 24.3487 62.3839 24.3864C62.4759 24.4241 62.5748 24.4421 62.6742 24.4392C63.1045 24.4392 63.3618 24.1772 63.3618 23.6817M61.5192 25.9125C61.511 25.9132 61.5028 25.9122 61.495 25.9093C61.4873 25.9065 61.4803 25.9021 61.4745 25.8963C61.4687 25.8905 61.4642 25.8834 61.4614 25.8757C61.4586 25.868 61.4575 25.8598 61.4582 25.8516V21.9C61.4582 21.8578 61.4817 21.8391 61.5239 21.8391H61.8698C61.8783 21.8376 61.8871 21.8381 61.8954 21.8406C61.9037 21.843 61.9114 21.8474 61.9177 21.8533C61.9241 21.8592 61.929 21.8665 61.9321 21.8746C61.9351 21.8827 61.9363 21.8914 61.9354 21.9V22.2366C62.0278 22.0902 62.1564 21.9701 62.3089 21.8879C62.4613 21.8058 62.6323 21.7645 62.8054 21.7678C62.951 21.763 63.0959 21.7895 63.2304 21.8454C63.365 21.9013 63.4859 21.9854 63.5852 22.092C63.6845 22.1986 63.7597 22.3252 63.806 22.4634C63.8522 22.6015 63.8682 22.748 63.8531 22.8928V23.731C63.8689 23.875 63.8541 24.0207 63.8094 24.1585C63.7648 24.2963 63.6915 24.4231 63.5942 24.5305C63.497 24.6379 63.3781 24.7235 63.2453 24.7815C63.1126 24.8395 62.969 24.8687 62.8242 24.8672C62.6496 24.8758 62.4759 24.8367 62.3218 24.7541C62.1677 24.6716 62.039 24.5486 61.9495 24.3985V25.8296C61.9502 25.8377 61.9491 25.846 61.9463 25.8537C61.9435 25.8614 61.939 25.8684 61.9332 25.8742C61.9274 25.88 61.9204 25.8845 61.9127 25.8873C61.905 25.8901 61.8967 25.8912 61.8886 25.8905L61.5192 25.9125ZM66.5264 23.6841V22.9711C66.5416 22.8745 66.5349 22.7757 66.5067 22.6821C66.4785 22.5884 66.4295 22.5024 66.3634 22.4303C66.2973 22.3582 66.2158 22.302 66.125 22.2658C66.0341 22.2295 65.9363 22.2143 65.8387 22.2211C65.7404 22.2183 65.6425 22.236 65.5514 22.2733C65.4603 22.3105 65.378 22.3663 65.3098 22.4372C65.2416 22.5081 65.1889 22.5924 65.1552 22.6849C65.1215 22.7773 65.1075 22.8758 65.114 22.9739V23.6771C65.1068 23.7758 65.1203 23.875 65.1537 23.9682C65.1871 24.0615 65.2395 24.1467 65.3078 24.2185C65.376 24.2902 65.4585 24.3469 65.5499 24.385C65.6413 24.423 65.7397 24.4415 65.8387 24.4392C66.269 24.4392 66.5264 24.1772 66.5264 23.6817M64.6837 25.9125C64.6755 25.9132 64.6673 25.9122 64.6596 25.9093C64.6519 25.9065 64.6448 25.9021 64.639 25.8963C64.6332 25.8905 64.6288 25.8834 64.6259 25.8757C64.6231 25.868 64.6221 25.8598 64.6228 25.8516V21.9C64.6228 21.8578 64.6462 21.8391 64.6884 21.8391H65.0343C65.0429 21.8376 65.0516 21.8381 65.06 21.8406C65.0683 21.843 65.0759 21.8474 65.0823 21.8533C65.0886 21.8592 65.0935 21.8665 65.0966 21.8746C65.0997 21.8827 65.1008 21.8914 65.1 21.9V22.2366C65.1924 22.0902 65.321 21.9701 65.4734 21.8879C65.6258 21.8058 65.7969 21.7645 65.97 21.7678C66.1159 21.7623 66.2614 21.7883 66.3965 21.8439C66.5315 21.8995 66.6531 21.9835 66.7529 22.0902C66.8527 22.1969 66.9284 22.3237 66.9749 22.4622C67.0213 22.6007 67.0375 22.7476 67.0223 22.8928V23.731C67.0382 23.8752 67.0233 24.0211 66.9785 24.1591C66.9337 24.2971 66.8602 24.424 66.7627 24.5314C66.6652 24.6388 66.546 24.7243 66.4129 24.7822C66.2799 24.8401 66.1361 24.8691 65.9911 24.8672C65.8166 24.8748 65.6433 24.8353 65.4894 24.7528C65.3355 24.6703 65.2067 24.5479 65.1164 24.3985V25.8296C65.1171 25.8377 65.116 25.846 65.1132 25.8537C65.1104 25.8614 65.1059 25.8684 65.1001 25.8742C65.0943 25.88 65.0873 25.8845 65.0796 25.8873C65.0719 25.8901 65.0636 25.8912 65.0554 25.8905L64.6837 25.9125ZM68.2096 22.9664V23.7239C68.2096 23.9137 68.285 24.0957 68.4192 24.2299C68.5534 24.3641 68.7354 24.4395 68.9252 24.4395C69.115 24.4395 69.297 24.3641 69.4312 24.2299C69.5654 24.0957 69.6407 23.9137 69.6407 23.7239V22.9664C69.6407 22.7767 69.5654 22.5947 69.4312 22.4605C69.297 22.3263 69.115 22.2509 68.9252 22.2509C68.7354 22.2509 68.5534 22.3263 68.4192 22.4605C68.285 22.5947 68.2096 22.7767 68.2096 22.9664ZM70.1315 22.943V23.7239C70.1315 24.0439 70.0044 24.3508 69.7781 24.5771C69.5519 24.8034 69.245 24.9305 68.925 24.9305C68.605 24.9305 68.2981 24.8034 68.0718 24.5771C67.8455 24.3508 67.7184 24.0439 67.7184 23.7239V22.9571C67.7184 22.6371 67.8455 22.3302 68.0718 22.1039C68.2981 21.8776 68.605 21.7505 68.925 21.7505C69.245 21.7505 69.5519 21.8776 69.7781 22.1039C70.0044 22.3302 70.1315 22.6371 70.1315 22.9571M72.3717 21.8536V22.1841C72.3717 22.2356 72.3717 22.2544 72.2967 22.2544H72.2357C72.0487 22.248 71.8647 22.3025 71.7112 22.4095C71.5577 22.5166 71.4431 22.6706 71.3845 22.8483V24.7481C71.3845 24.7903 71.3564 24.8044 71.3236 24.8044H70.9542C70.9466 24.8051 70.939 24.8042 70.9318 24.8016C70.9247 24.799 70.9182 24.7949 70.9128 24.7895C70.9074 24.7842 70.9033 24.7777 70.9007 24.7705C70.8982 24.7634 70.8972 24.7557 70.8979 24.7481V21.9C70.8979 21.8532 70.8979 21.8391 70.9636 21.8391H71.3001C71.347 21.8391 71.3704 21.8625 71.3704 21.9047V22.3735C71.4562 22.2 71.5904 22.0552 71.7568 21.9564C71.9232 21.8577 72.1146 21.8092 72.3079 21.8171C72.3782 21.8171 72.397 21.8171 72.397 21.8874M73.8 21.1374V21.8527H74.4361C74.4829 21.8527 74.5017 21.8761 74.5017 21.9277V22.1944C74.5017 22.246 74.5017 22.2647 74.4361 22.2647H73.8V23.9902C73.8 24.2569 73.9448 24.3783 74.2162 24.3783H74.4314C74.4782 24.3783 74.5017 24.3783 74.5017 24.4439V24.7477C74.5017 24.7992 74.5017 24.818 74.4314 24.818H74.1459C74.0396 24.8334 73.9313 24.8251 73.8286 24.7935C73.726 24.7619 73.6316 24.708 73.5524 24.6355C73.4732 24.563 73.4111 24.4738 73.3706 24.3744C73.33 24.2749 73.3121 24.1677 73.3181 24.0605V22.2694H72.9112C72.8737 22.2694 72.8503 22.2694 72.8503 22.1991V21.9324C72.8503 21.8808 72.8737 21.8574 72.9112 21.8574H73.3228V21.1378C73.3228 21.1003 73.3228 21.0769 73.3931 21.0769H73.7296C73.7859 21.0769 73.8 21.0764 73.8 21.1374ZM79.1592 21.6474C79.1592 21.7036 79.1592 21.7458 79.0795 21.7688L78.5559 21.9605C78.5429 21.9673 78.5285 21.9712 78.5138 21.9717C78.4991 21.9722 78.4845 21.9695 78.471 21.9637C78.4575 21.9578 78.4455 21.949 78.4359 21.9379C78.4262 21.9268 78.4192 21.9137 78.4153 21.8996C78.3713 21.7808 78.2891 21.6801 78.1816 21.6132C78.074 21.5463 77.9473 21.5171 77.8214 21.5302C77.4989 21.5302 77.2884 21.6844 77.2884 21.9183C77.2884 22.1522 77.452 22.2502 78.179 22.5028C78.9061 22.7555 79.1986 23.1014 79.1986 23.6747C79.1986 24.3624 78.6093 24.886 77.7581 24.886C77.4436 24.9241 77.1259 24.8477 76.8632 24.6708C76.6004 24.4939 76.41 24.2284 76.327 23.9227C76.3227 23.9107 76.3209 23.898 76.3216 23.8853C76.3224 23.8727 76.3257 23.8603 76.3314 23.8489C76.3371 23.8376 76.3451 23.8275 76.3548 23.8193C76.3645 23.8111 76.3758 23.805 76.3879 23.8013L76.9537 23.6138C77.0287 23.5903 77.0657 23.6138 77.0845 23.6888C77.1154 23.8374 77.2018 23.9686 77.3261 24.0557C77.4504 24.1428 77.6032 24.1792 77.7534 24.1575C78.1368 24.1575 78.3379 23.9939 78.3379 23.7506C78.3379 23.5074 78.1931 23.4225 77.6039 23.2177C76.7573 22.9139 76.4348 22.5769 76.4348 21.9521C76.4471 21.7858 76.4926 21.6236 76.5686 21.4752C76.6446 21.3268 76.7495 21.1951 76.8772 21.0879C77.0049 20.9806 77.1528 20.9001 77.3121 20.8509C77.4715 20.8018 77.639 20.7851 77.805 20.8017C78.0953 20.7728 78.387 20.8425 78.6329 20.9994C78.8789 21.1564 79.0649 21.3915 79.1611 21.6671M80.8448 21.1805V21.8541H81.4073C81.4194 21.8526 81.4316 21.8538 81.4431 21.8577C81.4546 21.8617 81.4651 21.8682 81.4737 21.8768C81.4823 21.8854 81.4888 21.8958 81.4927 21.9073C81.4966 21.9188 81.4979 21.9311 81.4964 21.9431V22.4344C81.4971 22.4461 81.4953 22.4578 81.4911 22.4687C81.4868 22.4796 81.4802 22.4895 81.4717 22.4975C81.4632 22.5056 81.453 22.5117 81.4419 22.5153C81.4307 22.519 81.4189 22.5202 81.4073 22.5188H80.8448V23.8514C80.8448 24.0244 80.9386 24.1228 81.1626 24.1228H81.4059C81.4622 24.1228 81.495 24.151 81.495 24.2025V24.7575C81.495 24.8138 81.4622 24.8372 81.4059 24.8372H81.029C80.3554 24.8372 80.0376 24.4819 80.0376 23.9578V22.5047H79.6917C79.6801 22.5061 79.6683 22.5049 79.6571 22.5013C79.646 22.4976 79.6358 22.4915 79.6273 22.4834C79.6188 22.4754 79.6122 22.4656 79.6079 22.4547C79.6037 22.4437 79.6018 22.432 79.6026 22.4203V21.9281C79.6011 21.9161 79.6023 21.9038 79.6063 21.8923C79.6102 21.8808 79.6167 21.8704 79.6253 21.8618C79.6339 21.8532 79.6444 21.8467 79.6559 21.8427C79.6674 21.8388 79.6796 21.8376 79.6917 21.8391H80.0517V21.18C80.0503 21.169 80.0513 21.1578 80.0547 21.1473C80.0582 21.1367 80.0639 21.127 80.0715 21.119C80.0792 21.1109 80.0885 21.1046 80.0988 21.1006C80.1092 21.0965 80.1203 21.0949 80.1314 21.0956H80.7675C80.819 21.0956 80.8425 21.1285 80.8425 21.18M83.6578 23.8083V23.5271C83.5017 23.5177 83.3451 23.5177 83.189 23.5271C82.8853 23.5646 82.7203 23.6578 82.7203 23.8917C82.7203 24.1256 82.8609 24.2199 83.0953 24.2199C83.224 24.2216 83.3496 24.1808 83.4528 24.1039C83.5559 24.0269 83.6308 23.9181 83.6657 23.7942M84.4654 22.7653V24.7294C84.4654 24.7403 84.4632 24.751 84.4589 24.761C84.4547 24.771 84.4484 24.78 84.4405 24.7875C84.4326 24.7949 84.4232 24.8007 84.413 24.8044C84.4028 24.8081 84.3919 24.8097 84.3811 24.8091H83.7825C83.7716 24.8097 83.7607 24.8081 83.7505 24.8044C83.7403 24.8007 83.731 24.7949 83.7231 24.7875C83.7152 24.78 83.7089 24.771 83.7046 24.761C83.7003 24.751 83.6981 24.7403 83.6981 24.7294V24.4069C83.6145 24.5518 83.4936 24.6716 83.3481 24.7541C83.2025 24.8365 83.0375 24.8785 82.8703 24.8756C82.7446 24.8858 82.6182 24.8686 82.4998 24.8251C82.3814 24.7816 82.2739 24.7129 82.1847 24.6237C82.0956 24.5345 82.0268 24.427 81.9833 24.3086C81.9398 24.1903 81.9226 24.0639 81.9328 23.9381C81.9328 23.3911 82.2787 23.0681 83.1159 23.0006C83.2963 22.9843 83.4778 22.9843 83.6582 23.0006V22.7888C83.6662 22.7331 83.6611 22.6763 83.6431 22.6229C83.6252 22.5696 83.595 22.5212 83.555 22.4816C83.515 22.4421 83.4662 22.4124 83.4127 22.3951C83.3591 22.3778 83.3023 22.3733 83.2467 22.3819C83.1556 22.3696 83.0632 22.3908 82.9866 22.4416C82.91 22.4924 82.8545 22.5693 82.8304 22.658C82.8023 22.7236 82.7836 22.7377 82.7231 22.7189L82.1245 22.5694C82.0636 22.5694 82.0589 22.5178 82.0729 22.4756C82.1526 22.0453 82.5417 21.7322 83.2748 21.7322C84.0079 21.7322 84.4579 22.0875 84.4579 22.7611M86.8992 21.8541V22.4386C86.8992 22.5089 86.8711 22.5324 86.8012 22.5324H86.7121C86.5413 22.5108 86.3684 22.5519 86.2256 22.6482C86.0828 22.7446 85.9799 22.8894 85.9359 23.056V24.7294C85.9372 24.7394 85.9364 24.7495 85.9335 24.7592C85.9306 24.7688 85.9256 24.7777 85.9189 24.7853C85.9123 24.7929 85.9041 24.7989 85.8949 24.803C85.8856 24.8071 85.8757 24.8092 85.8656 24.8091H85.1826C85.1725 24.8092 85.1626 24.8071 85.1534 24.803C85.1441 24.7989 85.1359 24.7929 85.1293 24.7853C85.1226 24.7777 85.1176 24.7688 85.1147 24.7592C85.1118 24.7495 85.111 24.7394 85.1123 24.7294V21.8766C85.1115 21.8661 85.1131 21.8556 85.1169 21.8458C85.1206 21.836 85.1266 21.8272 85.1342 21.82C85.1419 21.8128 85.151 21.8075 85.161 21.8043C85.171 21.8011 85.1816 21.8002 85.192 21.8016H85.814C85.8251 21.8008 85.8362 21.8025 85.8466 21.8065C85.8569 21.8105 85.8662 21.8168 85.8739 21.8249C85.8815 21.833 85.8872 21.8426 85.8906 21.8532C85.8941 21.8638 85.8951 21.8749 85.8937 21.886V22.321C85.9728 22.1577 86.0975 22.0209 86.2528 21.9272C86.408 21.8334 86.5871 21.7867 86.7684 21.7927C86.8757 21.7927 86.8992 21.7927 86.8992 21.8864M88.4986 21.1805V21.8541H89.0611C89.0727 21.8533 89.0845 21.8551 89.0954 21.8594C89.1063 21.8637 89.1161 21.8703 89.1242 21.8788C89.1322 21.8873 89.1383 21.8975 89.142 21.9086C89.1457 21.9197 89.1468 21.9315 89.1454 21.9431V22.4344C89.147 22.4458 89.1459 22.4575 89.1422 22.4684C89.1385 22.4794 89.1323 22.4893 89.1241 22.4975C89.116 22.5056 89.106 22.5118 89.0951 22.5155C89.0841 22.5192 89.0725 22.5203 89.0611 22.5188H88.4986V23.8514C88.4986 24.0244 88.5923 24.1228 88.8117 24.1228H89.0597C89.0707 24.1214 89.0818 24.1225 89.0924 24.1259C89.103 24.1293 89.1126 24.1351 89.1207 24.1427C89.1288 24.1503 89.1351 24.1596 89.1391 24.17C89.1431 24.1803 89.1448 24.1914 89.144 24.2025V24.7575C89.144 24.8138 89.1112 24.8372 89.0597 24.8372H88.6809C88.0073 24.8372 87.6942 24.4819 87.6942 23.9578V22.5047H87.3436C87.3321 22.5063 87.3205 22.5051 87.3095 22.5014C87.2986 22.4978 87.2886 22.4916 87.2805 22.4834C87.2723 22.4753 87.2661 22.4653 87.2624 22.4544C87.2587 22.4434 87.2576 22.4318 87.2592 22.4203V21.9281C87.2578 21.9165 87.259 21.9047 87.2626 21.8936C87.2663 21.8825 87.2724 21.8723 87.2804 21.8638C87.2885 21.8553 87.2983 21.8487 87.3092 21.8444C87.3201 21.8401 87.3319 21.8383 87.3436 21.8391H87.7036V21.18C87.702 21.1686 87.7031 21.1569 87.7068 21.146C87.7105 21.135 87.7167 21.1251 87.7248 21.1169C87.733 21.1088 87.743 21.1026 87.7539 21.0989C87.7648 21.0952 87.7765 21.0941 87.7879 21.0956H88.424C88.4347 21.0956 88.4453 21.0978 88.4551 21.1021C88.4648 21.1065 88.4736 21.1128 88.4807 21.1208C88.4878 21.1288 88.4931 21.1382 88.4963 21.1484C88.4994 21.1586 88.5004 21.1694 88.499 21.18M92.0531 22.4846C92.0531 22.5314 92.0531 22.5736 91.9875 22.5919L91.4873 22.7696C91.4311 22.7696 91.4029 22.7696 91.38 22.7086C91.342 22.6052 91.2707 22.5174 91.1774 22.4591C91.084 22.4007 90.9739 22.375 90.8643 22.3861C90.607 22.3861 90.4575 22.4846 90.4575 22.6341C90.4575 22.7836 90.5648 22.8399 91.1404 22.9941C91.8093 23.1717 92.0779 23.4628 92.0779 23.9316C92.0779 24.5114 91.6092 24.8691 90.862 24.8691C90.1148 24.8691 89.7211 24.6024 89.5664 24.1444C89.5664 24.0788 89.5664 24.0464 89.6461 24.0136L90.0857 23.7985C90.1514 23.7656 90.1884 23.7985 90.2212 23.8641C90.2698 23.9828 90.3552 24.0828 90.465 24.1493C90.5747 24.2158 90.7028 24.2453 90.8306 24.2335C91.1343 24.2335 91.2993 24.135 91.2993 23.9714C91.2993 23.8078 91.1311 23.7281 90.5934 23.5786C89.9339 23.4056 89.6559 23.1099 89.6559 22.6411C89.6559 22.0706 90.1246 21.7036 90.825 21.7036C91.0798 21.6779 91.3361 21.7355 91.5553 21.8679C91.7746 22.0003 91.945 22.2002 92.0409 22.4377M97.0921 20.9185V24.7341C97.0921 24.781 97.0921 24.8138 97.0078 24.8138H96.3436C96.3327 24.8144 96.3218 24.8128 96.3116 24.8091C96.3014 24.8054 96.2921 24.7996 96.2842 24.7922C96.2763 24.7847 96.27 24.7757 96.2657 24.7657C96.2614 24.7557 96.2592 24.745 96.2592 24.7341V23.228H94.889V24.7435C94.8898 24.7545 94.8881 24.7656 94.8841 24.776C94.8801 24.7863 94.8738 24.7957 94.8657 24.8033C94.8576 24.8109 94.848 24.8166 94.8374 24.8201C94.8269 24.8235 94.8157 24.8246 94.8046 24.8232H94.1217C94.1108 24.8238 94.1 24.8222 94.0897 24.8185C94.0795 24.8148 94.0702 24.809 94.0623 24.8015C94.0544 24.7941 94.0481 24.7851 94.0438 24.7751C94.0395 24.7651 94.0373 24.7543 94.0373 24.7435V20.9185C94.0372 20.9072 94.0396 20.896 94.0441 20.8856C94.0487 20.8753 94.0554 20.8661 94.0639 20.8585C94.0723 20.851 94.0822 20.8453 94.093 20.8419C94.1038 20.8385 94.1151 20.8374 94.1264 20.8388H94.8046C94.8157 20.8374 94.8269 20.8384 94.8374 20.8418C94.848 20.8453 94.8576 20.851 94.8657 20.8586C94.8738 20.8663 94.8801 20.8756 94.8841 20.8859C94.8881 20.8963 94.8898 20.9074 94.889 20.9185V22.4335H96.2592V20.9185C96.2592 20.9076 96.2614 20.8968 96.2657 20.8868C96.27 20.8769 96.2763 20.8679 96.2842 20.8604C96.2921 20.8529 96.3014 20.8472 96.3116 20.8434C96.3218 20.8397 96.3327 20.8381 96.3436 20.8388H97.0218C97.0828 20.8388 97.1062 20.8716 97.1062 20.9185M98.5373 22.9341V23.0367H99.585V22.9341C99.5907 22.8618 99.5814 22.7891 99.5577 22.7206C99.5339 22.6521 99.4963 22.5893 99.4471 22.536C99.3979 22.4828 99.3382 22.4403 99.2718 22.4112C99.2054 22.3821 99.1336 22.3671 99.0611 22.3671C98.9886 22.3671 98.9169 22.3821 98.8505 22.4112C98.7841 22.4403 98.7244 22.4828 98.6752 22.536C98.626 22.5893 98.5883 22.6521 98.5646 22.7206C98.5409 22.7891 98.5316 22.8618 98.5373 22.9341ZM98.5373 23.5702V23.6841C98.525 23.7583 98.5308 23.8344 98.5541 23.9059C98.5774 23.9774 98.6175 24.0423 98.6712 24.095C98.7248 24.1477 98.7904 24.1868 98.8623 24.2088C98.9342 24.2309 99.0104 24.2353 99.0843 24.2217C99.2019 24.2398 99.322 24.2184 99.4261 24.1609C99.5302 24.1034 99.6123 24.013 99.6595 23.9039C99.7111 23.8196 99.7345 23.8102 99.8184 23.8477L100.249 24.0675C100.338 24.1097 100.342 24.1519 100.305 24.2358C100.187 24.4528 100.008 24.6306 99.7905 24.7472C99.5727 24.8638 99.3256 24.9142 99.0796 24.8921C98.909 24.9147 98.7355 24.8998 98.5713 24.8482C98.407 24.7966 98.2561 24.7097 98.1291 24.5935C98.002 24.4773 97.902 24.3348 97.836 24.1758C97.77 24.0168 97.7396 23.8453 97.747 23.6733V22.9711C97.7388 22.8002 97.7681 22.6295 97.8329 22.4711C97.8977 22.3127 97.9964 22.1704 98.1221 22.0543C98.2478 21.9381 98.3974 21.8509 98.5604 21.7987C98.7234 21.7466 98.8958 21.7307 99.0656 21.7524C99.2307 21.7359 99.3974 21.7553 99.5543 21.8094C99.7111 21.8634 99.8545 21.9507 99.9744 22.0653C100.094 22.1799 100.188 22.3191 100.249 22.4734C100.31 22.6276 100.337 22.7933 100.328 22.9589V23.4277C100.328 23.5074 100.3 23.5631 100.184 23.5631L98.5373 23.5702ZM102.699 21.8541V22.4386C102.699 22.5089 102.676 22.5324 102.601 22.5324H102.517C102.346 22.5108 102.173 22.5519 102.03 22.6482C101.887 22.7446 101.784 22.8894 101.74 23.056V24.7294C101.741 24.7393 101.74 24.7491 101.736 24.7585C101.733 24.7678 101.728 24.7764 101.722 24.7838C101.715 24.7912 101.707 24.7973 101.698 24.8016C101.689 24.806 101.68 24.8085 101.67 24.8091H100.982C100.972 24.8092 100.962 24.8071 100.953 24.803C100.944 24.7989 100.936 24.7929 100.929 24.7853C100.922 24.7777 100.917 24.7688 100.914 24.7592C100.911 24.7495 100.911 24.7394 100.912 24.7294V21.8766C100.911 21.8661 100.913 21.8556 100.917 21.8458C100.92 21.836 100.926 21.8272 100.934 21.82C100.942 21.8128 100.951 21.8075 100.961 21.8043C100.971 21.8011 100.981 21.8002 100.992 21.8016H101.614C101.679 21.8016 101.693 21.8438 101.693 21.886V22.321C101.772 22.1577 101.897 22.0209 102.052 21.9272C102.208 21.8334 102.387 21.7867 102.568 21.7927C102.68 21.7927 102.699 21.7927 102.699 21.8864M103.887 22.9341V23.0367H104.935V22.9341C104.941 22.8618 104.932 22.7891 104.908 22.7206C104.884 22.6521 104.847 22.5893 104.797 22.536C104.748 22.4828 104.689 22.4403 104.622 22.4112C104.556 22.3821 104.484 22.3671 104.411 22.3671C104.339 22.3671 104.267 22.3821 104.201 22.4112C104.134 22.4403 104.075 22.4828 104.025 22.536C103.976 22.5893 103.939 22.6521 103.915 22.7206C103.891 22.7891 103.882 22.8618 103.888 22.9341M103.888 23.5702V23.6841C103.875 23.7583 103.881 23.8344 103.904 23.9059C103.928 23.9774 103.968 24.0423 104.021 24.095C104.075 24.1477 104.141 24.1868 104.213 24.2088C104.285 24.2309 104.361 24.2353 104.435 24.2217C104.553 24.2401 104.674 24.2189 104.779 24.1614C104.883 24.1039 104.966 24.0134 105.014 23.9039C105.061 23.8196 105.085 23.8102 105.169 23.8477L105.599 24.0675C105.688 24.1097 105.693 24.1519 105.655 24.2358C105.537 24.4528 105.358 24.6306 105.141 24.7472C104.923 24.8638 104.676 24.9142 104.43 24.8921C104.26 24.9133 104.088 24.8972 103.924 24.8449C103.761 24.7927 103.612 24.7055 103.486 24.5895C103.36 24.4735 103.261 24.3314 103.195 24.1732C103.13 24.015 103.1 23.8444 103.107 23.6733V22.9711C103.098 22.8002 103.128 22.6295 103.193 22.4711C103.257 22.3127 103.356 22.1704 103.482 22.0543C103.607 21.9381 103.757 21.8509 103.92 21.7987C104.083 21.7466 104.256 21.7307 104.425 21.7524C104.59 21.7359 104.757 21.7553 104.914 21.8094C105.071 21.8634 105.214 21.9507 105.334 22.0653C105.454 22.1799 105.548 22.3191 105.609 22.4734C105.67 22.6276 105.697 22.7933 105.688 22.9589V23.4277C105.688 23.5074 105.66 23.5631 105.543 23.5631L103.888 23.5702Z" fill="#7989AD"/>
</g>
</g>
</g>
</g>
<defs>
<clipPath id="clip0_11_136">
<rect width="104.998" height="30" fill="white" transform="translate(0.685303)"/>
</clipPath>
</defs>
</svg>
