<svg width="227" height="30" viewBox="0 0 227 30" fill="none" xmlns="http://www.w3.org/2000/svg">
<g id="loketkansspel2 1" opacity="0.6" clip-path="url(#clip0_11_183)">
<g id="Group 92">
<g id="Group 74">
<path id="Path 21" d="M42.2228 7.72498V21.714H50.0055V23.214H40.5765V7.72498H42.2228Z" fill="#7989AD"/>
</g>
<g id="Group 75">
<path id="Path 22" d="M66.4486 15.4537C66.4599 16.5661 66.3047 17.6739 65.9881 18.7402C65.7114 19.6808 65.2527 20.5579 64.6381 21.3217C64.0485 22.0414 63.3023 22.6168 62.4563 23.004C61.5201 23.3997 60.514 23.6037 59.4976 23.6037C58.4812 23.6037 57.4751 23.3997 56.5388 23.004C55.6944 22.6176 54.9501 22.042 54.3638 21.3217C53.7527 20.5566 53.2964 19.6798 53.0206 18.7402C52.4059 16.598 52.4059 14.326 53.0206 12.1837C53.2966 11.2476 53.7529 10.3745 54.3638 9.61349C54.9515 8.8962 55.6955 8.32283 56.5388 7.93724C57.4751 7.54169 58.4812 7.33789 59.4976 7.33789C60.514 7.33789 61.5201 7.54169 62.4563 7.93724C63.3011 8.32361 64.0471 8.89677 64.6381 9.61349C65.2525 10.3733 65.7113 11.2466 65.9881 12.1837C66.3045 13.2445 66.4597 14.3468 66.4486 15.4537ZM64.7941 15.4537C64.8081 14.5033 64.6693 13.5567 64.3831 12.6502C64.1431 11.8859 63.7615 11.1735 63.2581 10.5502C62.8038 9.99378 62.2301 9.54669 61.5795 9.24211C60.9289 8.93752 60.2182 8.78326 59.4998 8.79074C58.7794 8.78483 58.0666 8.93851 57.4126 9.24074C56.7624 9.54546 56.1894 9.9931 55.7363 10.5502C55.236 11.174 54.8576 11.8864 54.6211 12.6502C54.0805 14.4819 54.0805 16.4308 54.6211 18.2625C54.8568 19.0278 55.2352 19.7416 55.7363 20.3662C56.4286 21.1987 57.3766 21.779 58.4328 22.017C59.489 22.2549 60.5943 22.137 61.5766 21.6817C62.2277 21.373 62.8022 20.9237 63.2588 20.3662C63.763 19.7421 64.1447 19.0283 64.3838 18.2625C64.6696 17.3541 64.8081 16.4059 64.7941 15.4537Z" fill="#7989AD"/>
</g>
<g id="Group 76">
<path id="Path 23" d="M71.6446 7.72498V15.6525L79.5421 7.72498H81.7066L75.5889 13.8202L82.0839 23.2132H79.9921L74.4421 15L71.6439 17.7532V23.2162H70.0006V7.72498H71.6446Z" fill="#7989AD"/>
</g>
<g id="Group 77">
<path id="Path 24" d="M95.7706 7.72498V9.22498H87.0886V14.4652H95.2636V15.9652H87.0886V21.7162H96.1591V23.2162H85.4453V7.72498H95.7706Z" fill="#7989AD"/>
</g>
<g id="Group 78">
<path id="Path 25" d="M110.892 7.72498V9.22498H105.763V23.2147H104.12V9.22498H99.0016V7.72498H110.892Z" fill="#7989AD"/>
</g>
<g id="Group 79">
<path id="Path 26" d="M113.822 7.83228H116.335V15.7643H116.385L123.22 7.83228H126.205L120.885 13.9073L126.763 23.2328H123.777L119.253 15.7028L116.336 18.5438V23.2328H113.822L113.822 7.83228Z" fill="#7989AD"/>
</g>
<g id="Group 80">
<path id="Path 27" d="M137.495 19.7865H131.198L129.923 23.2305H127.259L133.293 7.83228H135.4L141.434 23.2305H138.785L137.495 19.7865ZM136.778 17.7188L134.378 10.9823H134.332L131.932 17.7188H136.778Z" fill="#7989AD"/>
</g>
<g id="Group 81">
<path id="Path 28" d="M143.67 7.83228H146.039L153.558 18.7823H153.604V7.83228H156.117V23.2305H153.737L146.229 12.2843H146.183V23.2305H143.67V7.83228Z" fill="#7989AD"/>
</g>
<g id="Group 82">
<path id="Path 29" d="M160.345 19.5C161.703 20.5215 163.363 21.0617 165.062 21.0352C167.22 21.0067 168.314 20.2915 168.344 18.8895C168.36 17.7395 167.638 17.049 166.18 16.818C165.512 16.7335 164.779 16.6382 163.982 16.5322C162.764 16.4117 161.62 15.8956 160.724 15.063C160.35 14.6894 160.055 14.244 159.858 13.7536C159.66 13.2632 159.563 12.7379 159.574 12.2092C159.553 11.5927 159.672 10.9796 159.923 10.4159C160.173 9.85218 160.548 9.35267 161.02 8.95497C162.149 8.07198 163.559 7.62878 164.99 7.70772C166.9 7.70438 168.77 8.25711 170.372 9.29847L168.971 11.2155C167.732 10.4557 166.311 10.0461 164.858 10.0305C164.172 10.005 163.495 10.1935 162.921 10.5697C162.654 10.7564 162.438 11.0071 162.292 11.2989C162.147 11.5907 162.077 11.9142 162.089 12.24C162.093 12.4685 162.145 12.6937 162.241 12.9011C162.337 13.1085 162.476 13.2936 162.647 13.4445C163.154 13.8709 163.776 14.1358 164.435 14.205C164.89 14.2755 165.513 14.3565 166.303 14.448C167.604 14.5265 168.832 15.0794 169.753 16.002C170.473 16.7848 170.868 17.8128 170.858 18.8767C170.774 21.8227 168.832 23.3167 165.032 23.3587C162.74 23.4144 160.499 22.6721 158.694 21.2587L160.345 19.5Z" fill="#7989AD"/>
</g>
<g id="Group 83">
<path id="Path 30" d="M174.158 19.5C175.516 20.5217 177.176 21.0619 178.876 21.0352C181.033 21.0067 182.127 20.2915 182.158 18.8895C182.173 17.7395 181.452 17.049 179.993 16.818C179.325 16.7335 178.593 16.6382 177.795 16.5322C176.578 16.4117 175.434 15.8956 174.538 15.063C174.164 14.6894 173.869 14.244 173.671 13.7536C173.473 13.2632 173.377 12.7379 173.387 12.2092C173.366 11.5928 173.486 10.9797 173.736 10.416C173.986 9.8523 174.361 9.35276 174.833 8.95498C175.961 8.07194 177.372 7.62873 178.803 7.70773C180.713 7.70444 182.583 8.25717 184.184 9.29848L182.783 11.2155C181.545 10.4557 180.123 10.0461 178.67 10.0305C177.984 10.0049 177.307 10.1934 176.733 10.5697C176.466 10.7564 176.25 11.0071 176.104 11.2989C175.959 11.5907 175.889 11.9142 175.901 12.24C175.905 12.4685 175.957 12.6937 176.053 12.9011C176.149 13.1085 176.288 13.2936 176.459 13.4445C176.966 13.8712 177.589 14.1361 178.248 14.205C178.704 14.2755 179.326 14.3565 180.116 14.448C181.417 14.5266 182.644 15.0794 183.566 16.002C184.286 16.7849 184.681 17.8129 184.67 18.8767C184.587 21.8227 182.645 23.3167 178.844 23.3587C176.552 23.4145 174.312 22.6721 172.507 21.2587L174.158 19.5Z" fill="#7989AD"/>
</g>
<g id="Group 84">
<path id="Path 31" d="M187.766 7.83231H193.784C194.418 7.83066 195.052 7.88715 195.676 8.00106C196.345 8.17891 196.973 8.4876 197.522 8.90931C198.07 9.28153 198.51 9.79138 198.797 10.3876C199.24 11.2437 199.402 12.2171 199.26 13.1703C199.119 14.1235 198.682 15.0081 198.01 15.6991C197.504 16.2141 196.895 16.6159 196.223 16.8781C195.551 17.1403 194.831 17.2569 194.11 17.2201H190.28V23.2298H187.766L187.766 7.83231ZM190.279 15.0256H194.01C194.399 15.0478 194.788 14.9874 195.152 14.8485C195.515 14.7095 195.846 14.4951 196.121 14.2193C196.551 13.7584 196.792 13.1521 196.796 12.5213C196.81 12.0707 196.716 11.6232 196.522 11.2163C196.33 10.8977 196.053 10.6382 195.723 10.4663C195.176 10.155 194.552 10.0043 193.923 10.0313H190.283L190.279 15.0256Z" fill="#7989AD"/>
</g>
<g id="Group 85">
<path id="Path 32" d="M202.037 7.83228H212.643V10.0283H204.551V14.4345H211.458V16.5023H204.551V21.0345H212.642V23.2305H202.037V7.83228Z" fill="#7989AD"/>
</g>
<g id="Group 86">
<path id="Path 33" d="M215.427 7.83228H217.94V21.0323H226.031V23.2283H215.427V7.83228Z" fill="#7989AD"/>
</g>
<g id="Group 87">
<path id="Path 34" d="M34.5466 25.8337H2.88607C2.21817 25.833 1.57785 25.5673 1.10557 25.095C0.63329 24.6227 0.367615 23.9824 0.366821 23.3145V2.51925C0.367615 1.85135 0.63329 1.21103 1.10557 0.738748C1.57785 0.266469 2.21817 0.000793942 2.88607 0L34.5458 0C35.2137 0.000793942 35.854 0.266469 36.3263 0.738748C36.7986 1.21103 37.0643 1.85135 37.0651 2.51925V23.3145C37.0643 23.9823 36.7987 24.6225 36.3266 25.0947C35.8545 25.567 35.2143 25.8328 34.5466 25.8337ZM2.88607 1.90275C2.72309 1.90275 2.56678 1.96744 2.45147 2.08261C2.33615 2.19779 2.27127 2.35402 2.27107 2.517V23.3123C2.27127 23.4753 2.33613 23.6316 2.45142 23.7469C2.56671 23.8622 2.72302 23.9271 2.88607 23.9272H34.5458C34.7089 23.9272 34.8654 23.8625 34.9807 23.7471C35.096 23.6318 35.1608 23.4754 35.1608 23.3123V2.51925C35.1606 2.35627 35.0957 2.20004 34.9804 2.08486C34.8651 1.96969 34.7088 1.905 34.5458 1.905L2.88607 1.90275Z" fill="#7989AD"/>
</g>
<g id="Group 88">
<path id="Path 35" d="M34.3883 30H3.03829C2.65478 30 2.28699 29.8477 2.01581 29.5765C1.74463 29.3053 1.59229 28.9375 1.59229 28.554V27.5348H35.8343V28.5503C35.8348 28.7405 35.7977 28.9289 35.7253 29.1048C35.6528 29.2807 35.5464 29.4405 35.4121 29.5752C35.2778 29.7099 35.1182 29.8167 34.9425 29.8896C34.7668 29.9625 34.5785 30 34.3883 30Z" fill="#7989AD"/>
</g>
<g id="Group 89">
<path id="Path 36" d="M2.81037 0.951782H34.6209C35.0167 0.951782 35.3963 1.10903 35.6762 1.38893C35.9561 1.66882 36.1134 2.04845 36.1134 2.44428V3.53028H1.31787V2.44203C1.31847 2.04659 1.47598 1.66754 1.75581 1.38813C2.03564 1.10872 2.41492 0.951782 2.81037 0.951782Z" fill="#7989AD"/>
</g>
<g id="Group 90">
<path id="Path 37" d="M25.8188 22.5052H11.6078L13.101 16.9237C13.1726 16.4761 13.3893 16.0644 13.7178 15.752C14.0463 15.4396 14.4684 15.2439 14.919 15.1949H22.5068C22.9576 15.2437 23.3798 15.4394 23.7085 15.7518C24.0372 16.0642 24.254 16.4759 24.3255 16.9237L25.8188 22.5052Z" fill="#7989AD"/>
</g>
<g id="Group 91">
<path id="Ellipse 4" d="M18.7133 14.109C20.924 14.109 22.7161 12.3169 22.7161 10.1063C22.7161 7.89561 20.924 6.10352 18.7133 6.10352C16.5027 6.10352 14.7106 7.89561 14.7106 10.1063C14.7106 12.3169 16.5027 14.109 18.7133 14.109Z" fill="#7989AD"/>
</g>
</g>
</g>
<defs>
<clipPath id="clip0_11_183">
<rect width="225.664" height="30" fill="white" transform="translate(0.367554)"/>
</clipPath>
</defs>
</svg>
