<svg width="94" height="30" viewBox="0 0 94 30" fill="none" xmlns="http://www.w3.org/2000/svg">
<g id="gordonmoody5 1" opacity="0.6" clip-path="url(#clip0_11_156)">
<g id="Group">
<path id="Vector" d="M15.0297 20.7023C18.525 20.7023 21.3585 18.0951 21.3585 14.8789C21.3585 11.6627 18.525 9.05542 15.0297 9.05542C11.5344 9.05542 8.70093 11.6627 8.70093 14.8789C8.70093 18.0951 11.5344 20.7023 15.0297 20.7023Z" fill="#7989AD"/>
<path id="Vector_2" d="M15.0297 7.5035L17.9079 4.85518V1.68005H12.1516V4.85518L15.0297 7.5035Z" fill="#7989AD"/>
<path id="Vector_3" d="M11.022 8.50015L12.0743 4.8694L10.3412 2.10718L5.35864 4.76973L7.0917 7.51771L11.022 8.50015Z" fill="#7989AD"/>
<path id="Vector_4" d="M8.08203 11.1912L7.02981 7.57466L4.0279 5.97998L1.14978 10.5647L4.16716 12.1594L8.08203 11.1912Z" fill="#7989AD"/>
<path id="Vector_5" d="M7.01429 14.8789L4.13617 12.2306H0.670044V17.5272H4.13617L7.01429 14.8789Z" fill="#7989AD"/>
<path id="Vector_6" d="M8.08203 18.5666L4.16716 17.5984L1.14978 19.1931L4.0279 23.7778L7.02981 22.1831L8.08203 18.5666Z" fill="#7989AD"/>
<path id="Vector_7" d="M11.0066 21.2719L7.0917 22.2401L5.35864 25.0023L10.3412 27.6364L12.0743 24.8741L11.0066 21.2719Z" fill="#7989AD"/>
<path id="Vector_8" d="M15.0297 22.2543L12.1516 24.9026V28.092H17.9079V24.9026L15.0297 22.2543Z" fill="#7989AD"/>
<path id="Vector_9" d="M19.0374 21.2719L17.9852 24.8741L19.7183 27.6364L24.7008 25.0023L22.9678 22.2401L19.0374 21.2719Z" fill="#7989AD"/>
<path id="Vector_10" d="M21.9619 18.5666L23.0141 22.1831L26.016 23.7778L28.9096 19.1931L25.9077 17.5984L21.9619 18.5666Z" fill="#7989AD"/>
<path id="Vector_11" d="M23.0452 14.8789L25.9233 17.5272H29.3739V12.2306H25.9233L23.0452 14.8789Z" fill="#7989AD"/>
<path id="Vector_12" d="M21.9619 11.1912L25.9077 12.1594L28.9096 10.5647L26.016 5.97998L23.0296 7.57466L21.9619 11.1912Z" fill="#7989AD"/>
<path id="Vector_13" d="M19.0374 8.50015L22.9678 7.53195L24.7008 4.76973L19.7183 2.10718L17.9852 4.8694L19.0374 8.50015Z" fill="#7989AD"/>
</g>
<g id="Group_2">
<path id="Vector_14" d="M39.339 4.82678C41.8612 4.82678 43.1146 5.96584 43.1146 5.96584L41.8921 8.03039C41.8921 8.03039 41.0101 7.21881 39.5556 7.21881C37.7297 7.21881 37.0024 8.24396 37.0024 9.39726C37.0024 10.7641 37.9773 11.7323 39.4628 11.7323C40.3757 11.7323 41.0875 11.2909 41.1649 11.177V10.7784H39.927V8.85621H43.5788V13.8966H41.2422V13.5121C41.2422 13.3697 41.2577 13.2558 41.2732 13.2274H41.2113C41.0875 13.384 40.3138 14.0532 38.751 14.0532C36.1204 14.0532 33.9541 12.2449 33.9541 9.45422C34.0005 6.83438 36.105 4.82678 39.339 4.82678Z" fill="white"/>
<path id="Vector_15" d="M55.6019 5.1543H59.7334C61.8224 5.1543 63.2459 6.19369 63.2459 8.03042C63.2459 9.04134 62.6889 9.98106 61.7914 10.4794V10.5079C61.8223 10.5506 62.008 10.7784 62.2092 11.1059L63.8804 13.9108H60.7547L59.2692 11.1628H58.4645V13.9108H55.5864V5.1543H55.6019ZM59.3311 9.12677C59.981 9.12677 60.3369 8.77081 60.3369 8.20128C60.3369 7.64599 60.0893 7.29003 59.2228 7.29003H58.4645V9.11253L59.3311 9.12677Z" fill="white"/>
<path id="Vector_16" d="M64.5922 5.1543H68.4606C71.4006 5.1543 73.2729 6.74898 73.2729 9.5112C73.2729 12.2734 71.4006 13.9108 68.4606 13.9108H64.5922V5.1543ZM68.2749 11.7466C69.5592 11.7466 70.3175 10.992 70.3175 9.5112C70.3175 8.04466 69.5128 7.30427 68.2749 7.30427H67.4703V11.7466H68.2749Z" fill="white"/>
<path id="Vector_17" d="M85.2496 5.1543H87.9885L90.3405 8.74234C90.7273 9.34034 91.0213 10.0807 91.0213 10.0807H91.0677C91.0677 10.0807 90.9594 9.29763 90.9594 8.74234V5.1543H93.7292V13.9108H90.944L88.5765 10.1519C88.236 9.62511 87.8956 8.82777 87.8956 8.82777H87.8492C87.8492 8.82777 87.9575 9.59663 87.9575 10.1519V13.9108H85.2341V5.1543H85.2496Z" fill="white"/>
<path id="Vector_18" d="M34.7278 15.9183H37.869L39.0605 19.4494C39.2462 20.0047 39.4473 20.859 39.4473 20.859H39.4938C39.4938 20.859 39.6949 20.019 39.8806 19.4494L41.0721 15.9183H44.1978L44.8941 24.6749H42.2171L41.9541 21.0299C41.9077 20.3749 41.9541 19.6203 41.9541 19.6203H41.9077C41.9077 19.6203 41.6756 20.4746 41.4744 21.0299L40.6079 23.5216H38.3178L37.4358 21.0299C37.2501 20.4746 37.0025 19.6203 37.0025 19.6203H36.9561C36.9561 19.6203 36.987 20.3607 36.9406 21.0299L36.693 24.6749H33.9851L34.7278 15.9183Z" fill="white"/>
<path id="Vector_19" d="M50.7122 15.7048C53.8379 15.7048 55.9269 17.6697 55.9269 20.2611C55.9269 22.9236 53.8379 24.9312 50.7122 24.9312C47.5865 24.9312 45.4976 22.9236 45.4976 20.2611C45.4976 17.6697 47.5865 15.7048 50.7122 15.7048ZM50.7122 22.5534C51.9811 22.5534 52.9095 21.6279 52.9095 20.2753C52.9095 18.9796 51.9965 18.0969 50.7122 18.0969C49.4279 18.0969 48.5149 18.9796 48.5149 20.2753C48.5149 21.6279 49.4434 22.5534 50.7122 22.5534Z" fill="white"/>
<path id="Vector_20" d="M49.5671 4.9834C52.6928 4.9834 54.7817 6.94828 54.7817 9.53964C54.7817 12.2022 52.6928 14.2098 49.5671 14.2098C46.4414 14.2098 44.3524 12.2022 44.3524 9.53964C44.3679 6.94828 46.4414 4.9834 49.5671 4.9834ZM49.5671 11.832C50.8359 11.832 51.7643 10.9065 51.7643 9.55388C51.7643 8.2582 50.8514 7.37542 49.5671 7.37542C48.2828 7.37542 47.3698 8.2582 47.3698 9.55388C47.3698 10.9065 48.2982 11.832 49.5671 11.832Z" fill="white"/>
<path id="Vector_21" d="M79.1684 4.9834C82.2941 4.9834 84.3831 6.94828 84.3831 9.53964C84.3831 12.2022 82.2941 14.2098 79.1684 14.2098C76.0427 14.2098 73.9537 12.2022 73.9537 9.53964C73.9537 6.94828 76.0427 4.9834 79.1684 4.9834ZM79.1684 11.832C80.4372 11.832 81.3657 10.9065 81.3657 9.55388C81.3657 8.2582 80.4527 7.37542 79.1684 7.37542C77.8995 7.37542 76.9711 8.2582 76.9711 9.55388C76.9711 10.9065 77.8841 11.832 79.1684 11.832Z" fill="white"/>
<path id="Vector_22" d="M61.6985 15.7048C64.8242 15.7048 66.9132 17.6697 66.9132 20.2611C66.9132 22.9236 64.8242 24.9312 61.6985 24.9312C58.5728 24.9312 56.4839 22.9236 56.4839 20.2611C56.4839 17.6697 58.5883 15.7048 61.6985 15.7048ZM61.6985 22.5534C62.9674 22.5534 63.8958 21.6279 63.8958 20.2753C63.8958 18.9796 62.9829 18.0969 61.6985 18.0969C60.4142 18.0969 59.5013 18.9796 59.5013 20.2753C59.5013 21.6279 60.4297 22.5534 61.6985 22.5534Z" fill="white"/>
<path id="Vector_23" d="M67.8726 15.9183H71.741C74.681 15.9183 76.5533 17.513 76.5533 20.2752C76.5533 23.0375 74.681 24.6749 71.741 24.6749H67.8726V15.9183ZM71.5553 22.5249C72.8396 22.5249 73.5979 21.7703 73.5979 20.2895C73.5979 18.8229 72.7932 18.0825 71.5553 18.0825H70.7507V22.5249H71.5553Z" fill="white"/>
<path id="Vector_24" d="M79.0911 21.215L75.95 15.9326H79.0292L79.9422 17.7409C80.2052 18.2962 80.4838 19.065 80.4838 19.065H80.5302C80.5302 19.065 80.8087 18.2962 81.0872 17.7409L81.9847 15.9326H85.0795L81.9847 21.215V24.6749H79.1066L79.0911 21.215Z" fill="white"/>
</g>
</g>
<defs>
<clipPath id="clip0_11_156">
<rect width="93.75" height="30" fill="white" transform="translate(0.0321045)"/>
</clipPath>
</defs>
</svg>
