<svg width="228" height="30" viewBox="0 0 228 30" fill="none" xmlns="http://www.w3.org/2000/svg">
<g id="gammbleaware4 1" opacity="0.6" clip-path="url(#clip0_11_144)">
<path id="Vector" d="M0.782104 15.5801C0.782104 5.22099 5.30011 0 12.4272 0C17.3595 0 21.0888 2.40331 22.1233 7.83292L22.2891 8.70451L18.0625 9.61612L17.8968 8.83025C17.1081 5.18384 15.0791 3.775 12.3443 3.775C8.48929 3.775 5.42299 7.13279 5.42299 15.2943C5.42299 23.0015 8.20066 26.2336 12.0957 26.2336C14.8734 26.2336 18.1054 24.7847 18.1054 19.6866V18.8179H12.0128V15.2115H22.3319V29.5085H18.6426L18.394 25.9849C17.0252 28.8426 14.3333 30.0057 11.1841 30.0057C4.88574 30 0.782104 24.9876 0.782104 15.5801Z" fill="white"/>
<path id="Vector_2" d="M38.2407 27.5138C36.9547 28.8798 35.2573 29.96 32.5225 30C28.6274 30 26.0984 27.3881 26.0984 24.0331C26.0984 20.3867 29.1247 18.6035 31.7766 17.8577L38.2007 16.0345V15.2886C38.2007 12.9682 36.749 11.808 34.4714 11.808C32.3567 11.808 30.6593 13.1339 29.9134 14.6256L29.7877 14.8743L26.5128 13.1339L26.7214 12.7196C27.633 10.8535 30.162 8.28442 34.8429 8.28442C39.5238 8.28442 42.5101 10.6477 42.5101 14.9143V25.8135C42.5101 26.848 42.553 28.2168 42.7587 29.1284L42.8416 29.5028H38.5322L38.4893 29.2941C38.3636 28.714 38.2807 28.1339 38.2407 27.5138ZM33.6398 26.7251C35.5459 26.7251 37.2462 25.6049 38.1978 24.4046V19.1836L33.7227 20.5525C32.0252 21.0897 30.5307 21.9613 30.5307 23.7445C30.5307 25.5277 31.7337 26.7279 33.6398 26.7279V26.7251Z" fill="white"/>
<path id="Vector_3" d="M67.5348 12.0166C65.8373 12.0166 64.0541 13.1769 63.0596 14.1713V29.5028H58.7502V15.2058C58.7502 13.0911 57.6729 12.0138 55.6011 12.0138C53.9036 12.0138 52.1204 13.174 51.1259 14.1685V29.5H46.8165V8.78459H50.9202V11.065C52.4948 9.40757 54.7323 8.28735 57.0528 8.28735C59.9533 8.28735 61.6936 9.61332 62.5224 11.4365C64.097 9.57045 66.5003 8.28735 68.9865 8.28735C73.2558 8.28735 74.9962 11.1479 74.9962 14.2542V29.5028H70.6868V15.2058C70.6868 13.0911 69.6094 12.0138 67.5376 12.0138L67.5348 12.0166Z" fill="white"/>
<path id="Vector_4" d="M83.8208 27.5966L83.4064 29.5027H79.76V0.497192H84.0694V10.4848C85.3125 9.07597 87.2186 8.28725 89.2075 8.28725C93.9313 8.28725 97.1233 11.8108 97.1233 18.855C97.1233 25.8992 93.7655 30.0028 89.0418 30.0028C86.9271 30.0028 84.981 29.1312 83.8208 27.5995V27.5966ZM88.2131 26.5193C90.6592 26.5193 92.7311 24.2817 92.7311 18.9779C92.7311 13.674 90.5764 11.8079 88.1302 11.8079C86.4727 11.8079 85.1039 12.6366 84.0694 13.714V24.5303C85.1468 25.6506 86.5556 26.5193 88.2131 26.5193Z" fill="white"/>
<path id="Vector_5" d="M100.684 0.497192H104.993V29.5027H100.684V0.497192Z" fill="white"/>
<path id="Vector_6" d="M108.806 19.4352C108.806 12.8882 112.08 8.28735 117.799 8.28735C121.819 8.28735 126.043 10.6907 126.043 18.1492V20.0953H113.032V20.3439C113.032 24.3647 115.147 26.6023 117.962 26.6023C119.785 26.6023 121.319 25.8564 122.354 23.9903L122.602 23.5331L126 24.9848L125.794 25.3992C124.26 28.4655 121.525 30.0001 117.839 30.0001C112.618 30.0001 108.806 26.3108 108.806 19.4323V19.4352ZM121.982 17.2376V16.9461C121.982 13.174 119.993 11.7652 117.799 11.7652C115.604 11.7652 113.446 13.4226 113.075 17.2348H121.985L121.982 17.2376Z" fill="white"/>
<path id="Vector_7" d="M137.48 0.497192H143.738L151.942 29.5027H147.341L145.31 21.8784H135.696L133.665 29.5027H129.312L137.48 0.497192ZM144.318 18.3149L140.506 4.06073L136.694 18.3149H144.318Z" fill="#7989AD"/>
<path id="Vector_8" d="M150.862 8.78455H155.171L158.569 23.5788L162.341 8.78455H166.402L170.091 23.5788L173.615 8.78455H177.553L172.206 29.5028H167.937L164.207 14.7514L160.435 29.5028H156.209L150.862 8.78455Z" fill="#7989AD"/>
<path id="Vector_9" d="M190.27 27.5138C188.984 28.8798 187.286 29.96 184.551 30C180.656 30 178.127 27.3881 178.127 24.0331C178.127 20.3867 181.151 18.6035 183.806 17.8577L190.23 16.0345V15.2886C190.23 12.9682 188.778 11.808 186.5 11.808C184.389 11.808 182.688 13.1339 181.942 14.6256L181.819 14.8743L178.545 13.1339L178.753 12.7196C179.665 10.8535 182.194 8.28442 186.875 8.28442C191.556 8.28442 194.542 10.6477 194.542 14.9143V25.8135C194.542 26.848 194.585 28.2168 194.79 29.1284L194.873 29.5028H190.564L190.521 29.2941C190.398 28.714 190.315 28.1339 190.272 27.5138H190.27ZM185.672 26.7251C187.578 26.7251 189.278 25.6049 190.23 24.4046V19.1836L185.754 20.5525C184.054 21.0897 182.562 21.9613 182.562 23.7445C182.562 25.5277 183.766 26.7279 185.672 26.7279V26.7251Z" fill="#7989AD"/>
<path id="Vector_10" d="M198.723 8.78453H202.743V12.6796C205.478 9.48752 207.924 8.53591 209.996 8.49304V12.5138C207.096 12.5138 204.815 14.1313 203.035 15.7459V29.5028H198.726V8.78453H198.723Z" fill="#7989AD"/>
<path id="Vector_11" d="M210.448 19.4352C210.448 12.8882 213.723 8.28735 219.441 8.28735C223.462 8.28735 227.688 10.6907 227.688 18.1492V20.0953H214.677V20.3439C214.677 24.3647 216.792 26.6023 219.609 26.6023C221.433 26.6023 222.967 25.8564 224.002 23.9903L224.25 23.5331L227.648 24.9848L227.442 25.3992C225.908 28.4655 223.173 30.0001 219.487 30.0001C214.266 30.0001 210.453 26.3108 210.453 19.4323L210.448 19.4352ZM223.625 17.2376V16.9461C223.625 13.174 221.636 11.7652 219.438 11.7652C217.24 11.7652 215.086 13.4226 214.714 17.2348H223.625V17.2376Z" fill="#7989AD"/>
</g>
<defs>
<clipPath id="clip0_11_144">
<rect width="226.903" height="30" fill="white" transform="translate(0.782104)"/>
</clipPath>
</defs>
</svg>
