<svg id="Layer_1" data-name="Layer 1" xmlns="http://www.w3.org/2000/svg" xmlns:xlink="http://www.w3.org/1999/xlink" viewBox="0 0 104.82 130.47"><defs><style>.cls-1{fill:none;}.cls-2{fill:#7d85ff;}.cls-3{fill:#f27936;}.cls-4{fill:#ff4f4f;}.cls-5{fill:#fff;}.cls-6{fill:#4396ca;}.cls-7{fill:#2cc1c7;}.cls-8{fill:#fe9249;}.cls-9{fill:#5c55f1;}.cls-10{fill:#7e84fc;}.cls-11{fill:#6855ef;}.cls-12{fill:#fe924a;}.cls-13{fill:#189d9a;}.cls-14{clip-path:url(#clip-path);}.cls-15{fill:#4035d8;}.cls-16{fill:#6e54ed;}</style><clipPath id="clip-path" transform="translate(-382.29 -171.15)"><path class="cls-1" d="M401.75,248l-11.82,1.12a2.2,2.2,0,0,1-2.41-2l-3.23-16.88a2.2,2.2,0,0,1,2-2.41l15-2.21c1.22-.12,2.86,2.13,3,3.34l-.54,16.61A2.21,2.21,0,0,1,401.75,248Z"/></clipPath></defs><title>31</title><path class="cls-2" d="M388.38,256.08l17.16,2.17.52,40.57h-3.62S399.7,274.3,398.66,263h-2.51l-.75,35.78h-3.63S387.93,267,388,260.92C388,260.46,388.38,256.08,388.38,256.08Z" transform="translate(-382.29 -171.15)"/><path class="cls-3" d="M402,237l4.4-.13A22.94,22.94,0,0,1,404.8,242c-.8,1.94-5.35,5.21-3,6.63s4.79-8.27,6.47-8.85,5.38.6,4.5,2.22-3.25-.2-3.79.54-2.37,9.68-7.45,10-7.11-2.23-6.09-4.74S402,237,402,237Z" transform="translate(-382.29 -171.15)"/><circle class="cls-4" cx="450.33" cy="222.55" r="7.62" transform="translate(-433.11 17.17) rotate(-22.39)"/><polygon class="cls-5" points="68.04 46.04 69.67 49.32 73.29 49.85 70.67 52.41 71.29 56.02 68.04 54.31 64.8 56.02 65.42 52.41 62.8 49.85 66.42 49.32 68.04 46.04"/><circle class="cls-6" cx="42.11" cy="50.46" r="7.62"/><path class="cls-5" d="M427.75,218.85c-1.14-.61-2.64.16-3.34,1.22-.7-1.06-2.27-1.83-3.41-1.22a2.16,2.16,0,0,0-.85,3.11c.65,1.21,4.25,4.15,4.26,4.11s3.61-2.9,4.26-4.11A2.18,2.18,0,0,0,427.75,218.85Z" transform="translate(-382.29 -171.15)"/><circle class="cls-7" cx="54.71" cy="35.68" r="7.62"/><rect class="cls-5" x="53.84" y="31.46" width="1.74" height="8.44"/><rect class="cls-5" x="50.49" y="34.81" width="8.44" height="1.74"/><circle class="cls-8" cx="438" cy="238.79" r="9.97" transform="translate(-440.46 15.9) rotate(-22.65)"/><path class="cls-5" d="M443.55,243.23H432.7a.81.81,0,0,1-.81-.81v-6.94a.81.81,0,0,1,.81-.81h10.85a.81.81,0,0,1,.81.81v6.94A.81.81,0,0,1,443.55,243.23Zm-10-1.62h9.23v-5.32h-9.23Z" transform="translate(-382.29 -171.15)"/><path class="cls-5" d="M439.8,238.77a1.54,1.54,0,1,1-1.54-1.54A1.54,1.54,0,0,1,439.8,238.77Z" transform="translate(-382.29 -171.15)"/><path class="cls-5" d="M441.05,236.08a1,1,0,0,1-1-1v-.83a1,1,0,0,1,2,0v.83A1,1,0,0,1,441.05,236.08Z" transform="translate(-382.29 -171.15)"/><path class="cls-9" d="M465.22,202.45a9.23,9.23,0,1,1-9.23-9.23A9.23,9.23,0,0,1,465.22,202.45Z" transform="translate(-382.29 -171.15)"/><path class="cls-5" d="M452.16,206.71a.79.79,0,0,1-.58-.25.81.81,0,0,1,0-1.15l7.54-7.35a.81.81,0,1,1,1.13,1.17l-7.53,7.35A.85.85,0,0,1,452.16,206.71Z" transform="translate(-382.29 -171.15)"/><path class="cls-5" d="M455,199.38a1.77,1.77,0,1,1-1.76-1.76A1.76,1.76,0,0,1,455,199.38Z" transform="translate(-382.29 -171.15)"/><path class="cls-5" d="M460.72,204.87A1.77,1.77,0,1,1,459,203.1,1.77,1.77,0,0,1,460.72,204.87Z" transform="translate(-382.29 -171.15)"/><circle class="cls-6" cx="76.66" cy="33.73" r="0.74"/><circle class="cls-6" cx="70.99" cy="28.24" r="0.74"/><circle class="cls-7" cx="461.61" cy="239.09" r="9.23" transform="translate(-251.83 468.67) rotate(-77.81)"/><path class="cls-5" d="M468.36,239.66s-2.55,3.76-7,3.52a8.59,8.59,0,0,1-6.24-3.52s1.82-4.12,6.24-4.24A7.38,7.38,0,0,1,468.36,239.66Z" transform="translate(-382.29 -171.15)"/><path class="cls-7" d="M464.66,239.36a2.79,2.79,0,1,1-2.79-2.78A2.79,2.79,0,0,1,464.66,239.36Z" transform="translate(-382.29 -171.15)"/><circle class="cls-4" cx="436.11" cy="185.52" r="10.22" transform="translate(-366.87 232.62) rotate(-50.46)"/><path class="cls-5" d="M435.84,186.56c0-.64,0-.78-.61-1a2.85,2.85,0,0,1-2.17-2.67,2.76,2.76,0,0,1,2.37-2.76c.24-.05.38-.1.39-.43s.42-.25.65-.25.23.11.23.3c0,.34.44.29.81.35.2,0,1.51.27,1.51.55,0,.1-.5,1.57-.68,1.57s-.61-.51-1.33-.51c-.31,0-.26.43-.26.63v1.09c0,.59,0,.78.64,1a3.12,3.12,0,0,1,2.42,3,2.72,2.72,0,0,1-2.62,3c-.28,0-.39.2-.39.51s-.2.25-.47.25-.42.06-.44-.22-.21-.54-.64-.54c-.7,0-2-.61-2-.85s.43-2,.65-2c.48,0,.8.74,1.62.74.38,0,.34-.35.34-.61Zm0-4.25c0-.36.07-.61-.25-.61-.56,0-.84.55-.84,1.07a1.25,1.25,0,0,0,.87,1.08c.19,0,.22-.47.22-.83Zm.91,5.53c0,.29,0,.49.36.49a1,1,0,0,0,1-1A1.47,1.47,0,0,0,437,186.2c-.28,0-.25.24-.25.49Z" transform="translate(-382.29 -171.15)"/><path class="cls-10" d="M486.78,218.11A11.14,11.14,0,1,1,475.65,207,11.13,11.13,0,0,1,486.78,218.11Z" transform="translate(-382.29 -171.15)"/><path class="cls-5" d="M481.06,213.15c.54.18.91,1.31.51,3.12s-1,5.93-1,5.93h-1.51s.71-4.42-.7-4.83-2.31,4.83-5.53,4.83-5.23.1-5.33-.8,4.32-1.71,6.13-4C476.3,214,480.16,212.85,481.06,213.15Z" transform="translate(-382.29 -171.15)"/><circle class="cls-8" cx="476.89" cy="194.14" r="10.22" transform="translate(-379.89 222.93) rotate(-45)"/><path class="cls-5" d="M482.3,198.46H471.2a.81.81,0,0,1-.81-.81v-7.1a.82.82,0,0,1,.81-.82h11.1a.82.82,0,0,1,.82.82v7.1A.82.82,0,0,1,482.3,198.46ZM472,196.83h9.48v-5.47H472Z" transform="translate(-382.29 -171.15)"/><path class="cls-5" d="M476.91,195.64a.82.82,0,0,1-.49-.16l-5.71-4.28,1-1.3,5.2,3.9,4.91-3.89,1,1.27-5.4,4.29A.82.82,0,0,1,476.91,195.64Z" transform="translate(-382.29 -171.15)"/><path class="cls-11" d="M427.54,200.43a10,10,0,1,1-10-10A10,10,0,0,1,427.54,200.43Z" transform="translate(-382.29 -171.15)"/><path class="cls-5" d="M417.56,207.57a7.14,7.14,0,1,1,7.14-7.14A7.15,7.15,0,0,1,417.56,207.57Zm0-12.65a5.52,5.52,0,1,0,5.52,5.51A5.51,5.51,0,0,0,417.56,194.92Z" transform="translate(-382.29 -171.15)"/><path class="cls-5" d="M417.56,201.24a.76.76,0,0,1-.36-.08L414.8,200a.81.81,0,0,1-.36-1.09.8.8,0,0,1,1.09-.36l2,1,3-1.65a.81.81,0,0,1,.78,1.42L418,201.14A.82.82,0,0,1,417.56,201.24Z" transform="translate(-382.29 -171.15)"/><path class="cls-10" d="M467.33,180.38a9.23,9.23,0,1,1-9.23-9.23A9.24,9.24,0,0,1,467.33,180.38Z" transform="translate(-382.29 -171.15)"/><path class="cls-5" d="M460.11,186.39a.82.82,0,0,1-.57-.24l-1.9-1.9L455.9,186a.81.81,0,0,1-1.38-.46l-1.16-8.89a.8.8,0,0,1,.7-.91.81.81,0,0,1,.91.7l.95,7.25,1.15-1.15a.82.82,0,0,1,.57-.24h0a.84.84,0,0,1,.58.24l1.89,1.9.9-.9a.81.81,0,0,1,1.15,0,.83.83,0,0,1,0,1.15l-1.47,1.47A.83.83,0,0,1,460.11,186.39Z" transform="translate(-382.29 -171.15)"/><path class="cls-5" d="M461.82,184.69a.82.82,0,0,1-.58-.24.81.81,0,0,1,0-1.15l.9-.89-1.9-1.9a.81.81,0,0,1,0-1.15l1.15-1.15-7.25-1a.81.81,0,0,1-.7-.91.8.8,0,0,1,.91-.7l8.88,1.16a.81.81,0,0,1,.47,1.38L462,179.93l1.9,1.9a.81.81,0,0,1,0,1.15l-1.47,1.47A.81.81,0,0,1,461.82,184.69Z" transform="translate(-382.29 -171.15)"/><path class="cls-11" d="M405.13,259.33l-15.34.24a2.2,2.2,0,0,1-2.41-2l-3.09-27.36a2.2,2.2,0,0,1,2-2.41l13.92-2.09a4.15,4.15,0,0,1,4.08,3.22l2.84,28A2.2,2.2,0,0,1,405.13,259.33Z" transform="translate(-382.29 -171.15)"/><path class="cls-11" d="M397.63,226.19l.76,12.42,9-.91s-2-8-2.91-10.56c-.43-1.21-2.37-1.49-3.72-1.49A16.18,16.18,0,0,0,397.63,226.19Z" transform="translate(-382.29 -171.15)"/><rect class="cls-12" x="391.31" y="220.52" width="4.49" height="7.01" transform="translate(-411.31 -109.92) rotate(-8.58)"/><path class="cls-12" d="M398.09,219.78a5.48,5.48,0,1,1-4.31-6.45A5.48,5.48,0,0,1,398.09,219.78Z" transform="translate(-382.29 -171.15)"/><path class="cls-12" d="M388.85,221.15a1.46,1.46,0,1,1-1.15-1.71A1.46,1.46,0,0,1,388.85,221.15Z" transform="translate(-382.29 -171.15)"/><path class="cls-13" d="M464.27,289.42H436.41a6.22,6.22,0,0,1-6.21-6.21v-.09a6.22,6.22,0,0,1,6.21-6.22h27.86a1.63,1.63,0,0,1,0,3.25H436.41a3,3,0,0,0-3,3v.09a3,3,0,0,0,3,3h27.86a1.63,1.63,0,0,1,0,3.25Z" transform="translate(-382.29 -171.15)"/><path class="cls-13" d="M433.57,280.12a1.21,1.21,0,0,1-1.16-.86l-8.51-28.15h47.49l-5.38,28a1.22,1.22,0,0,1-2.39-.46l4.82-25.13H427.18l7.56,25a1.22,1.22,0,0,1-.81,1.52A1.12,1.12,0,0,1,433.57,280.12Z" transform="translate(-382.29 -171.15)"/><path class="cls-13" d="M425.54,253.55a1.22,1.22,0,0,1-1.15-.81l-2.72-7.62h-6.14a1.22,1.22,0,1,1,0-2.44h7.86l3.3,9.24a1.23,1.23,0,0,1-.74,1.56A1.18,1.18,0,0,1,425.54,253.55Z" transform="translate(-382.29 -171.15)"/><path class="cls-13" d="M415.52,245.93h-6.59a2,2,0,1,1,0-4.06h6.59a2,2,0,1,1,0,4.06Z" transform="translate(-382.29 -171.15)"/><path class="cls-4" d="M441.24,296a5.58,5.58,0,1,1-5.58-5.59A5.58,5.58,0,0,1,441.24,296Z" transform="translate(-382.29 -171.15)"/><circle class="cls-4" cx="79.63" cy="124.89" r="5.58"/><path class="cls-5" d="M438.27,296a2.61,2.61,0,1,1-2.61-2.61A2.6,2.6,0,0,1,438.27,296Z" transform="translate(-382.29 -171.15)"/><path class="cls-5" d="M464.8,296a2.61,2.61,0,1,1-2.61-2.61A2.6,2.6,0,0,1,464.8,296Z" transform="translate(-382.29 -171.15)"/><path class="cls-13" d="M439.18,279.46a1.22,1.22,0,0,1-1.2-1l-4.33-24.91a1.22,1.22,0,1,1,2.4-.42L440.38,278a1.22,1.22,0,0,1-1,1.41Z" transform="translate(-382.29 -171.15)"/><path class="cls-13" d="M445.27,278.91a1.21,1.21,0,0,1-1.21-1.13l-1.63-24.64a1.23,1.23,0,0,1,1.14-1.3,1.21,1.21,0,0,1,1.29,1.14l1.63,24.64a1.22,1.22,0,0,1-1.14,1.29Z" transform="translate(-382.29 -171.15)"/><path class="cls-13" d="M458,279.46l-.19,0a1.22,1.22,0,0,1-1-1.39l3.93-24.91a1.21,1.21,0,1,1,2.4.38l-3.92,24.91A1.22,1.22,0,0,1,458,279.46Z" transform="translate(-382.29 -171.15)"/><path class="cls-13" d="M451.5,278.91h-.06a1.22,1.22,0,0,1-1.16-1.27L451.5,253a1.22,1.22,0,1,1,2.43.12l-1.21,24.64A1.23,1.23,0,0,1,451.5,278.91Z" transform="translate(-382.29 -171.15)"/><path class="cls-13" d="M467.2,262.13h-39a1.22,1.22,0,0,1,0-2.44h39a1.22,1.22,0,0,1,0,2.44Z" transform="translate(-382.29 -171.15)"/><path class="cls-13" d="M465.85,270.79H431.47a1.22,1.22,0,1,1,0-2.43h34.38a1.22,1.22,0,0,1,0,2.43Z" transform="translate(-382.29 -171.15)"/><path class="cls-12" d="M383,235.25s5,2.11,5,2.58,3.29,8.29,5.19,10.25c1.07,1.1,9.75-7.1,11.66-7.61s5,0,5.48,1.29-.68,2-2,1.35-2.62-.72-3.11-.34-8.07,10.82-11.33,10C389.27,251.56,382.88,243.75,383,235.25Z" transform="translate(-382.29 -171.15)"/><g class="cls-14"><path class="cls-12" d="M397.38,225.43a3.72,3.72,0,1,1-2.92-4.37A3.72,3.72,0,0,1,397.38,225.43Z" transform="translate(-382.29 -171.15)"/></g><path class="cls-15" d="M388.45,228.72c2.45,2.88.92,11.69.92,11.69l-7.08-.31s0-7.87.74-10.38C383.69,227.36,387.42,227.51,388.45,228.72Z" transform="translate(-382.29 -171.15)"/><path class="cls-4" d="M387.27,219.36c0-1.63-1.08-6.16,3.72-7,3.48-.64,3.7.13,5.67-.75,2.18-1,1.45-1.87,1.64-2s1.09.63,1.36,2.19a4.27,4.27,0,0,1-2,4.58c-2,1.15-4.06.34-6.16,1.08s-.32,2.83-.27,3.39-1.34,1.16-1.63.13C388.9,218.48,387.27,219.36,387.27,219.36Z" transform="translate(-382.29 -171.15)"/><path class="cls-16" d="M406.11,298.77h-3.68v2.83h7.47c.49,0,.66-1.11.23-1.35Z" transform="translate(-382.29 -171.15)"/><path class="cls-16" d="M395.29,298.77H391.6v2.83h7.47c.5,0,.67-1.11.23-1.35Z" transform="translate(-382.29 -171.15)"/></svg>